<svg width="283" height="71" viewBox="0 0 283 71" fill="none" xmlns="http://www.w3.org/2000/svg">
<path d="M78.755 25.28C78.755 25.91 79.07 26.405 79.7 26.765C80.36 27.125 81.38 27.515 82.76 27.935C84.41 28.475 85.76 29 86.81 29.51C87.89 30.02 88.82 30.815 89.6 31.895C90.41 32.975 90.815 34.385 90.815 36.125C90.815 41.705 87.185 44.495 79.925 44.495C78.725 44.495 77.255 44.39 75.515 44.18C73.805 43.97 72.245 43.7 70.835 43.37C70.895 42.74 71.015 41.825 71.195 40.625C71.405 39.395 71.6 38.48 71.78 37.88C72.83 38.03 74.405 38.21 76.505 38.42C78.635 38.63 80.24 38.735 81.32 38.735C81.95 38.735 82.325 38.69 82.445 38.6C82.625 38.48 82.76 38.285 82.85 38.015C82.97 37.715 83.03 37.46 83.03 37.25C83.03 36.65 82.745 36.2 82.175 35.9C81.605 35.57 80.63 35.18 79.25 34.73C77.6 34.22 76.235 33.695 75.155 33.155C74.075 32.615 73.13 31.775 72.32 30.635C71.51 29.495 71.105 27.995 71.105 26.135C71.105 24.815 71.405 23.525 72.005 22.265C72.605 20.975 73.22 20.105 73.85 19.655C74.33 19.325 75.32 19.01 76.82 18.71C78.32 18.41 79.73 18.26 81.05 18.26C84.41 18.26 87.155 18.575 89.285 19.205C89.255 19.805 89.15 20.63 88.97 21.68C88.82 22.73 88.655 23.69 88.475 24.56L87.44 24.515C83.54 24.245 81.05 24.11 79.97 24.11C79.52 24.11 79.265 24.125 79.205 24.155C79.085 24.215 78.98 24.35 78.89 24.56C78.8 24.77 78.755 25.01 78.755 25.28ZM114.829 23.3V44H108.574L107.719 40.535C105.559 43.145 102.979 44.45 99.9792 44.45C98.8992 44.45 97.8792 44.3 96.9192 44C95.9892 43.7 95.2842 43.265 94.8042 42.695C94.5342 42.365 94.3242 41.54 94.1742 40.22C94.0542 38.9 93.9942 36.89 93.9942 34.19V23.3H101.689V34.1C101.689 34.7 101.704 35.405 101.734 36.215C101.764 37.025 101.854 37.535 102.004 37.745C102.214 38.045 102.814 38.195 103.804 38.195L104.524 38.15C105.364 38.12 106.234 37.925 107.134 37.565V23.3H114.829ZM132.739 22.85C134.899 22.85 136.609 23.57 137.869 25.01C139.159 26.42 139.804 28.895 139.804 32.435C139.804 35.075 139.549 37.235 139.039 38.915C138.529 40.565 137.944 41.66 137.284 42.2C136.624 42.74 135.469 43.175 133.819 43.505C132.199 43.835 130.519 44 128.779 44C128.269 44 127.414 43.97 126.214 43.91V50.3L118.519 50.615V23.3H124.819L125.584 26.495C126.364 25.385 127.354 24.5 128.554 23.84C129.784 23.18 131.179 22.85 132.739 22.85ZM130.939 38.51C131.269 38.27 131.509 37.595 131.659 36.485C131.809 35.345 131.884 34.265 131.884 33.245C131.884 31.565 131.674 30.32 131.254 29.51C130.834 28.7 129.994 28.295 128.734 28.295C127.834 28.295 126.994 28.385 126.214 28.565V38.555L127.474 38.69C127.864 38.72 128.419 38.735 129.139 38.735C130.159 38.735 130.759 38.66 130.939 38.51ZM155.376 38.6C156.126 38.6 157.521 38.525 159.561 38.375C159.831 38.375 160.326 38.345 161.046 38.285L161.721 42.92C159.411 44 156.411 44.54 152.721 44.54C149.271 44.54 146.616 43.67 144.756 41.93C142.926 40.19 142.011 37.565 142.011 34.055C142.011 32.255 142.236 30.515 142.686 28.835C143.166 27.155 143.706 25.985 144.306 25.325C144.936 24.665 146.106 24.095 147.816 23.615C149.526 23.135 151.221 22.895 152.901 22.895C155.601 22.895 157.626 23.375 158.976 24.335C160.326 25.295 161.211 26.63 161.631 28.34C162.051 30.02 162.261 32.285 162.261 35.135C160.221 35.255 158.226 35.315 156.276 35.315H149.886C149.886 36.275 150.081 36.995 150.471 37.475C150.891 37.955 151.476 38.27 152.226 38.42C152.976 38.54 154.026 38.6 155.376 38.6ZM150.336 28.25C150.156 28.34 150.021 28.73 149.931 29.42C149.841 30.11 149.781 30.89 149.751 31.76H152.091C153.501 31.76 154.521 31.745 155.151 31.715C155.151 30.275 154.941 29.255 154.521 28.655C154.131 28.055 153.441 27.755 152.451 27.755C151.641 27.755 150.936 27.92 150.336 28.25ZM177.794 22.85C178.184 22.85 178.589 22.895 179.009 22.985C179.459 23.075 179.789 23.18 179.999 23.3C179.999 23.96 179.924 25.055 179.774 26.585C179.624 28.085 179.489 29.15 179.369 29.78C179.069 29.75 178.514 29.735 177.704 29.735C175.814 29.735 174.134 29.84 172.664 30.05V44H164.969V23.3H171.404L172.304 26.63H172.349C173.219 25.49 174.149 24.575 175.139 23.885C176.129 23.195 177.014 22.85 177.794 22.85ZM195.88 44H187.78V23.975H180.535V18.35H203.125V23.975H195.88V44ZM214.817 44.585C211.217 44.585 208.517 43.745 206.717 42.065C204.947 40.355 204.062 37.67 204.062 34.01C204.062 32 204.242 30.245 204.602 28.745C204.992 27.215 205.457 26.15 205.997 25.55C206.687 24.77 207.947 24.125 209.777 23.615C211.637 23.105 213.377 22.85 214.997 22.85C218.867 22.85 221.627 23.675 223.277 25.325C224.927 26.975 225.752 29.615 225.752 33.245C225.752 37.145 224.867 40.01 223.097 41.84C221.327 43.67 218.567 44.585 214.817 44.585ZM214.952 39.32C216.122 39.32 216.887 38.915 217.247 38.105C217.607 37.265 217.787 35.795 217.787 33.695C217.787 32.225 217.712 31.1 217.562 30.32C217.412 29.51 217.127 28.925 216.707 28.565C216.317 28.175 215.702 27.98 214.862 27.98C213.662 27.98 212.972 28.085 212.792 28.295C212.552 28.505 212.357 29.165 212.207 30.275C212.057 31.385 211.982 32.54 211.982 33.74C211.982 35.78 212.177 37.22 212.567 38.06C212.987 38.9 213.782 39.32 214.952 39.32ZM248.715 24.605C248.985 24.935 249.18 25.76 249.3 27.08C249.45 28.4 249.525 30.41 249.525 33.11V44H241.83V33.2V31.355C241.83 30.395 241.755 29.795 241.605 29.555C241.365 29.255 240.81 29.105 239.94 29.105C239.52 29.105 239.205 29.12 238.995 29.15C238.155 29.18 237.285 29.375 236.385 29.735V44H228.69V23.3H234.945L235.8 26.765C237.96 24.155 240.54 22.85 243.54 22.85C244.62 22.85 245.625 23 246.555 23.3C247.515 23.6 248.235 24.035 248.715 24.605ZM257.084 20.735C256.064 20.735 255.179 20.39 254.429 19.7C253.709 19.01 253.349 18.185 253.349 17.225C253.349 16.265 253.709 15.44 254.429 14.75C255.179 14.06 256.064 13.715 257.084 13.715C258.104 13.715 258.974 14.06 259.694 14.75C260.414 15.44 260.774 16.265 260.774 17.225C260.774 18.185 260.414 19.01 259.694 19.7C258.974 20.39 258.104 20.735 257.084 20.735ZM253.214 23.3H260.909V44H253.214V23.3ZM282.14 43.37C279.71 44.18 276.995 44.585 273.995 44.585C270.635 44.585 268.115 43.745 266.435 42.065C264.785 40.355 263.96 37.7 263.96 34.1C263.96 32.33 264.2 30.59 264.68 28.88C265.16 27.14 265.67 25.97 266.21 25.37C266.84 24.68 268.07 24.095 269.9 23.615C271.76 23.135 273.68 22.895 275.66 22.895C277.73 22.895 279.815 23.075 281.915 23.435C281.855 24.185 281.75 25.07 281.6 26.09C281.48 27.08 281.345 27.965 281.195 28.745C279.335 28.625 277.58 28.565 275.93 28.565C274.31 28.565 273.275 28.655 272.825 28.835C272.585 28.925 272.36 29.54 272.15 30.68C271.97 31.82 271.88 32.885 271.88 33.875C271.88 35.195 272.06 36.215 272.42 36.935C272.81 37.625 273.41 38.105 274.22 38.375C275.03 38.645 276.125 38.78 277.505 38.78C278.105 38.78 279.425 38.72 281.465 38.6L282.14 43.37Z" fill="#494949"/>
<g clip-path="url(#clip0_125_7)">
<path d="M34.9181 48.4194V28.9629L46.3313 27.1048C44.5132 17.432 36.0586 10.1137 25.8963 10.1137C14.4074 10.1137 5.09426 19.4643 5.09426 30.9995C5.09426 42.5346 14.4074 51.8852 25.8963 51.8852C27.0105 51.8852 28.1037 51.7944 29.1705 51.6254C30.0058 50.2331 31.504 49.1166 33.4062 48.6391C33.9091 48.5145 34.4162 48.4395 34.9202 48.4184L34.9181 48.4194ZM29.7176 11.8197L27.4892 21.6235H25.2609L23.6691 11.8197C26.0047 10.6471 29.7186 11.8197 29.7186 11.8197H29.7176ZM25.8953 38.7551C21.6301 38.7551 18.1718 35.2839 18.1718 31.0005C18.1718 26.7171 21.629 23.2471 25.8953 23.2471C30.1616 23.2471 33.6188 26.7182 33.6188 31.0005C33.6188 35.2829 30.1616 38.7551 25.8953 38.7551V38.7551ZM25.8953 25.0893C22.6475 25.0893 20.0067 27.7407 20.0067 31.0016C20.0067 34.2625 22.6475 36.9139 25.8953 36.9139C29.1431 36.9139 31.7839 34.2625 31.7839 31.0016C31.7839 27.7407 29.1431 25.0893 25.8953 25.0893V25.0893ZM25.8953 35.2248C23.5765 35.2248 21.689 33.3308 21.689 31.0016C21.689 28.6724 23.5765 26.7784 25.8953 26.7784C28.2141 26.7784 30.1005 28.6724 30.1005 31.0016C30.1005 33.3308 28.2152 35.2248 25.8953 35.2248V35.2248ZM28.5592 55.2306C28.6602 55.7916 28.8812 56.3134 29.201 56.7824C28.1173 56.9218 27.0158 57.0021 25.8953 57.0021C11.6173 57 0 45.336 0 31.0005C0 16.6651 11.6173 5 25.8963 5C38.571 5 49.1414 14.1943 51.3582 26.2872L48.8437 26.697C46.8247 15.8189 37.3064 7.55738 25.8963 7.55738C13.0208 7.55738 2.54713 18.0742 2.54713 31.0005C2.54713 43.9268 13.0218 54.4437 25.8963 54.4437C26.758 54.4437 27.6092 54.393 28.4477 54.3011C28.4551 54.6095 28.4887 54.9201 28.5613 55.2306H28.5592ZM53.9989 27.69V50.2331C53.9989 52.0997 52.6133 53.5891 50.4502 54.1373C48.0767 54.7278 45.7852 53.7307 45.3297 51.9032C44.8741 50.0736 46.4291 48.111 48.8026 47.5141C49.8758 47.248 50.931 47.3029 51.8148 47.6145V34.0333L39.6767 36.26L39.621 53.155H39.6189C39.6083 54.7553 38.1712 56.3261 36.1038 56.8394C33.7597 57.432 31.302 56.3113 31.038 54.6338C30.5866 52.8243 32.1237 50.8817 34.4741 50.2912C35.5315 50.0272 36.5657 50.08 37.4347 50.3853V30.3868L54 27.6889L53.9989 27.69Z" fill="#494949"/>
</g>
<defs>
<clipPath id="clip0_125_7">
<rect width="54" height="52" fill="white" transform="translate(0 5)"/>
</clipPath>
</defs>
</svg>
