<svg width="43" height="39" viewBox="0 0 43 39" fill="none" xmlns="http://www.w3.org/2000/svg">
<g filter="url(#filter0_d_103_160)">
<path d="M38.9812 3.15378L31.9455 0.0311111L31.9214 0.0204444L27.7647 0V19.8364C27.3056 19.7547 26.8242 19.7129 26.3308 19.7129C25.3002 19.7129 24.2516 19.8933 23.2167 20.2498C21.3949 20.8764 19.8383 21.9778 18.8352 23.3502C17.7874 24.784 17.4579 26.3449 17.9075 27.7467C18.5511 29.7538 20.6475 31 23.378 31C24.4086 31 25.4564 30.8196 26.4921 30.4631C28.3139 29.8364 29.8697 28.7351 30.8737 27.3627C31.4744 26.5413 32.0304 25.6 32.0304 24.2916V7.86756L39 11.0702L38.9812 3.15378Z" fill="#494949"/>
<path d="M25.0333 1.46313H4V7.17869H25.0333V1.46313Z" fill="#494949"/>
<path d="M25.0333 11.5751H4V17.2906H25.0333V11.5751Z" fill="#494949"/>
<path d="M14.8397 21.6871H4V27.4027H14.8397V21.6871Z" fill="#494949"/>
</g>
<defs>
<filter id="filter0_d_103_160" x="0" y="0" width="43" height="39" filterUnits="userSpaceOnUse" color-interpolation-filters="sRGB">
<feFlood flood-opacity="0" result="BackgroundImageFix"/>
<feColorMatrix in="SourceAlpha" type="matrix" values="0 0 0 0 0 0 0 0 0 0 0 0 0 0 0 0 0 0 127 0" result="hardAlpha"/>
<feOffset dy="4"/>
<feGaussianBlur stdDeviation="2"/>
<feComposite in2="hardAlpha" operator="out"/>
<feColorMatrix type="matrix" values="0 0 0 0 0 0 0 0 0 0 0 0 0 0 0 0 0 0 0.25 0"/>
<feBlend mode="normal" in2="BackgroundImageFix" result="effect1_dropShadow_103_160"/>
<feBlend mode="normal" in="SourceGraphic" in2="effect1_dropShadow_103_160" result="shape"/>
</filter>
</defs>
</svg>
