<svg width="45" height="45" viewBox="0 0 45 45" fill="none" xmlns="http://www.w3.org/2000/svg">
<circle cx="22.5" cy="22.5" r="22.5" fill="#E2F1E0"/>
<path d="M30.3333 10H13.6667C12.75 10 12 10.75 12 11.6667V33.3333C12 34.25 12.75 35 13.6667 35H30.3333C31.25 35 32 34.25 32 33.3333V11.6667C32 10.75 31.25 10 30.3333 10ZM17 28.3333C16.5417 28.3333 16.1667 27.9583 16.1667 27.5C16.1667 27.0417 16.5417 26.6667 17 26.6667C17.4583 26.6667 17.8333 27.0417 17.8333 27.5C17.8333 27.9583 17.4583 28.3333 17 28.3333ZM17 25C16.5417 25 16.1667 24.625 16.1667 24.1667C16.1667 23.7083 16.5417 23.3333 17 23.3333C17.4583 23.3333 17.8333 23.7083 17.8333 24.1667C17.8333 24.625 17.4583 25 17 25ZM17 21.6667C16.5417 21.6667 16.1667 21.2917 16.1667 20.8333C16.1667 20.375 16.5417 20 17 20C17.4583 20 17.8333 20.375 17.8333 20.8333C17.8333 21.2917 17.4583 21.6667 17 21.6667ZM17 18.3333C16.5417 18.3333 16.1667 17.9583 16.1667 17.5C16.1667 17.0417 16.5417 16.6667 17 16.6667C17.4583 16.6667 17.8333 17.0417 17.8333 17.5C17.8333 17.9583 17.4583 18.3333 17 18.3333ZM27 28.3333H20.3333C19.875 28.3333 19.5 27.9583 19.5 27.5C19.5 27.0417 19.875 26.6667 20.3333 26.6667H27C27.4583 26.6667 27.8333 27.0417 27.8333 27.5C27.8333 27.9583 27.4583 28.3333 27 28.3333ZM27 25H20.3333C19.875 25 19.5 24.625 19.5 24.1667C19.5 23.7083 19.875 23.3333 20.3333 23.3333H27C27.4583 23.3333 27.8333 23.7083 27.8333 24.1667C27.8333 24.625 27.4583 25 27 25ZM27 21.6667H20.3333C19.875 21.6667 19.5 21.2917 19.5 20.8333C19.5 20.375 19.875 20 20.3333 20H27C27.4583 20 27.8333 20.375 27.8333 20.8333C27.8333 21.2917 27.4583 21.6667 27 21.6667ZM27 18.3333H20.3333C19.875 18.3333 19.5 17.9583 19.5 17.5C19.5 17.0417 19.875 16.6667 20.3333 16.6667H27C27.4583 16.6667 27.8333 17.0417 27.8333 17.5C27.8333 17.9583 27.4583 18.3333 27 18.3333Z" fill="#494949"/>
</svg>
