<svg width="45" height="45" viewBox="0 0 45 45" fill="none" xmlns="http://www.w3.org/2000/svg">
<circle cx="22.5" cy="22.5" r="22.5" fill="#E2F1E0"/>
<path d="M33.8622 11.1376C33.8552 11.1307 33.8483 11.1237 33.8414 11.1168C31.2544 8.54917 27.1309 8.2848 24.2394 10.5022C23.9501 10.7237 23.7162 10.9244 23.5058 11.1348C23.5003 11.1403 23.4933 11.1473 23.4878 11.1528L18.8591 15.7815C18.4536 16.187 18.4536 16.8445 18.8591 17.2501C19.2647 17.6556 19.9222 17.6556 20.3277 17.2501L24.9716 12.6048C24.9716 12.6048 24.9813 12.5951 24.9855 12.591C25.1267 12.4512 25.2914 12.3114 25.499 12.1522C27.5766 10.559 30.5388 10.7542 32.3908 12.6062C32.3963 12.6117 32.4033 12.6186 32.4088 12.6242C34.4366 14.6714 34.4311 17.9865 32.3922 20.0267L27.7469 24.672C27.3413 25.0776 27.3413 25.735 27.7469 26.1406C27.949 26.3427 28.2148 26.4451 28.4805 26.4451C28.7463 26.4451 29.012 26.3441 29.2141 26.1406L33.8594 21.4953C36.7136 18.6398 36.7136 13.9931 33.8594 11.139L33.8622 11.1376Z" fill="#494949"/>
<path d="M24.6726 27.7462L20.0301 32.3887C20.0204 32.3984 20.0121 32.4081 20.0024 32.4178C19.4889 32.923 18.8868 33.3106 18.2113 33.5708C16.2749 34.321 14.074 33.8573 12.6082 32.3915C10.5638 30.3457 10.5638 27.0154 12.6082 24.9696L17.2535 20.3271C17.4486 20.1319 17.558 19.8675 17.558 19.5921C17.558 19.0162 17.0929 18.5526 16.5199 18.5526C16.225 18.5526 15.9579 18.6757 15.7683 18.8751L11.1396 23.501C8.28681 26.3565 8.28681 31.0032 11.1396 33.8587C12.5376 35.2567 14.4104 36.0014 16.3178 36.0014C17.205 36.0014 18.1006 35.8395 18.9588 35.5073C19.9166 35.1377 20.7706 34.584 21.496 33.8601C21.507 33.8504 21.5167 33.8393 21.5264 33.8283L26.1412 29.2134C26.5468 28.8079 26.5468 28.1504 26.1412 27.7448C25.7357 27.3393 25.0782 27.3393 24.6726 27.7448V27.7462Z" fill="#494949"/>
<path d="M17.187 27.8113C17.3905 28.0134 17.6549 28.1158 17.9206 28.1158C18.1864 28.1158 18.4521 28.0148 18.6542 27.8113L27.8119 18.6536C28.2175 18.2481 28.2175 17.5906 27.8119 17.185C27.4064 16.7795 26.7489 16.7795 26.3433 17.185L17.187 26.3427C16.7815 26.7483 16.7815 27.4058 17.187 27.8113Z" fill="#494949"/>
</svg>
