<svg width="35" height="31" viewBox="0 0 35 31" fill="none" xmlns="http://www.w3.org/2000/svg">
<path d="M33.2536 0H1.825C0.839286 0 0 0.795115 0 1.77481V29.2252C0 30.2049 0.839286 31 1.825 31H33.2536C34.2393 31 35 30.2049 35 29.2252V1.77481C35 0.795115 34.2405 0 33.2536 0ZM11.5476 19.1679H11.825C12.8107 19.1679 13.5714 18.3728 13.5714 17.3931V3.54962H15.9524V27.4504H11.5476V19.1679ZM19.5238 3.54962H21.7857V17.3931C21.7857 18.3728 22.625 19.1679 23.6107 19.1679H23.8095V27.4504H19.5238V3.54962ZM3.57143 3.54962H6.07143V17.3931C6.07143 18.3728 6.91071 19.1679 7.89643 19.1679H7.97619V27.4504H3.57143V3.54962ZM31.4286 27.4504H27.381V19.1679H27.5393C28.525 19.1679 29.2857 18.3728 29.2857 17.3931V3.54962H31.4286V27.4504Z" fill="#494949"/>
</svg>
