<svg width="45" height="45" viewBox="0 0 45 45" fill="none" xmlns="http://www.w3.org/2000/svg">
<circle cx="22.5" cy="22.5" r="22.5" fill="#E2F1E0"/>
<path d="M22.5 9C15.0581 9 9 15.0581 9 22.5C9 29.9419 15.0581 36 22.5 36C29.9419 36 36 29.9419 36 22.5C36 15.0581 29.9419 9 22.5 9ZM22.5 32.625C16.9144 32.625 12.375 28.0856 12.375 22.5C12.375 16.9144 16.9144 12.375 22.5 12.375C28.0856 12.375 32.625 16.9144 32.625 22.5C32.625 28.0856 28.0856 32.625 22.5 32.625Z" fill="#494949"/>
<path d="M20.8125 20.8125H15.75V24.1875H22.5C23.4281 24.1875 24.1875 23.4281 24.1875 22.5V14.0625H20.8125V20.8125Z" fill="#494949"/>
</svg>
