<svg width="34" height="34" viewBox="0 0 34 34" fill="none" xmlns="http://www.w3.org/2000/svg">
<path d="M31.5834 17.3259C30.3483 16.0918 28.7525 15.2945 26.9624 15.0171C25.5123 14.7953 24.2773 14.0257 23.5626 12.9095C23.181 12.3201 22.7092 11.8002 22.1542 11.3634C21.0301 10.4829 19.6286 10.0114 18.1022 10.0114C16.4855 10.0114 14.8828 10.5383 13.5228 11.509L8.04849 6.03181C8.58968 5.47716 8.58968 4.58972 8.04155 4.04201C7.49342 3.49429 6.60531 3.48736 6.05024 4.03507L5.07887 3.06444C5.62006 2.50979 5.62006 1.62235 5.07193 1.0677C4.5238 0.519984 3.6357 0.513051 3.08063 1.06077L2.42148 0.415987C1.86642 -0.138662 0.971369 -0.138662 0.416301 0.415987C-0.138767 0.970636 -0.138767 1.86501 0.416301 2.41966L1.06851 3.07137C0.527315 3.62602 0.527315 4.51346 1.07544 5.06117C1.35298 5.3385 1.71377 5.47716 2.07457 5.47716C2.43536 5.47716 2.78922 5.3385 3.06675 5.07504L4.03812 6.05261C3.49693 6.60726 3.49693 7.4947 4.04506 8.04241C4.32259 8.31974 4.68339 8.4584 5.04418 8.4584C5.40497 8.4584 5.75883 8.31974 6.03636 8.05628L11.5107 13.5334C10.6087 14.7953 10.0814 16.2582 10.012 17.7696C9.92184 19.69 10.581 21.4511 11.8646 22.7406C12.1213 22.9971 12.4058 23.2329 12.7111 23.4478C13.9322 24.2936 14.7648 25.6456 15.0632 27.2541C15.3754 28.9388 16.1664 30.4502 17.3459 31.6289C18.8862 33.1542 21.0163 34 23.3406 34C25.9009 34 28.4958 32.96 30.4594 31.1505C32.6519 29.126 33.9424 26.3666 33.9979 23.5657C34.0465 21.1321 33.1861 18.9274 31.5834 17.3259ZM28.5374 29.0428C27.0873 30.3809 25.1931 31.1436 23.3406 31.1436C21.7656 31.1436 20.3432 30.5958 19.3372 29.5975C18.567 28.8348 18.0466 27.8365 17.8454 26.7202C17.4153 24.3768 16.1664 22.3801 14.3277 21.1044C14.1612 20.9865 14.0085 20.8617 13.8698 20.7231C13.1551 20.009 12.7874 19.0037 12.8429 17.8874C12.9123 16.4523 13.6477 15.0587 14.855 14.0534C15.7986 13.2769 16.9435 12.8471 18.0952 12.8471C18.9833 12.8471 19.7743 13.1036 20.3988 13.5889C20.704 13.8316 20.9608 14.1158 21.1689 14.4347C22.3207 16.2374 24.2773 17.4715 26.5253 17.8112C27.7118 17.9914 28.7664 18.5114 29.5712 19.3226C30.6259 20.3764 31.1879 21.8532 31.1601 23.4755C31.1254 25.5069 30.1679 27.5383 28.5374 29.0428Z" fill="#494949"/>
<path d="M21.4951 22.8238C22.3151 22.8238 22.9799 22.1596 22.9799 21.3401C22.9799 20.5207 22.3151 19.8564 21.4951 19.8564C20.675 19.8564 20.0103 20.5207 20.0103 21.3401C20.0103 22.1596 20.675 22.8238 21.4951 22.8238Z" fill="#494949"/>
</svg>
