<svg width="282" height="158" viewBox="0 0 282 158" fill="none" xmlns="http://www.w3.org/2000/svg">
<path d="M5.01136 3.36364H8.04545L11.25 11.1818H11.3864L14.5909 3.36364H17.625V15H15.2386V7.42614H15.142L12.1307 14.9432H10.5057L7.49432 7.39773H7.39773V15H5.01136V3.36364ZM23.5497 15.1705C22.6671 15.1705 21.9039 14.983 21.2599 14.608C20.6198 14.2292 20.1255 13.7027 19.777 13.0284C19.4285 12.3504 19.2543 11.5644 19.2543 10.6705C19.2543 9.76894 19.4285 8.98106 19.777 8.30682C20.1255 7.62879 20.6198 7.10227 21.2599 6.72727C21.9039 6.34848 22.6671 6.15909 23.5497 6.15909C24.4323 6.15909 25.1937 6.34848 25.8338 6.72727C26.4777 7.10227 26.974 7.62879 27.3224 8.30682C27.6709 8.98106 27.8452 9.76894 27.8452 10.6705C27.8452 11.5644 27.6709 12.3504 27.3224 13.0284C26.974 13.7027 26.4777 14.2292 25.8338 14.608C25.1937 14.983 24.4323 15.1705 23.5497 15.1705ZM23.5611 13.2955C23.9626 13.2955 24.2978 13.1818 24.5668 12.9545C24.8357 12.7235 25.0384 12.4091 25.1747 12.0114C25.3149 11.6136 25.3849 11.161 25.3849 10.6534C25.3849 10.1458 25.3149 9.69318 25.1747 9.29545C25.0384 8.89773 24.8357 8.58333 24.5668 8.35227C24.2978 8.12121 23.9626 8.00568 23.5611 8.00568C23.1558 8.00568 22.8149 8.12121 22.5384 8.35227C22.2656 8.58333 22.0592 8.89773 21.919 9.29545C21.7827 9.69318 21.7145 10.1458 21.7145 10.6534C21.7145 11.161 21.7827 11.6136 21.919 12.0114C22.0592 12.4091 22.2656 12.7235 22.5384 12.9545C22.8149 13.1818 23.1558 13.2955 23.5611 13.2955Z" fill="#4F4F4F"/>
<path d="M17.5916 36.3636V48H15.1314V38.6989H15.0632L12.3984 40.3693V38.1875L15.2791 36.3636H17.5916Z" fill="#4F4F4F"/>
<path d="M15.495 73.1591C14.62 73.1591 13.8416 73.017 13.1598 72.733C12.4818 72.4451 11.9496 72.053 11.5632 71.5568C11.1768 71.0606 10.9837 70.4981 10.9837 69.8693C10.9837 69.3845 11.0935 68.9394 11.3132 68.5341C11.5367 68.125 11.8397 67.786 12.2223 67.517C12.6049 67.2443 13.0329 67.0701 13.5064 66.9943V66.9148C12.8852 66.7898 12.3814 66.4886 11.995 66.0114C11.6087 65.5303 11.4155 64.9716 11.4155 64.3352C11.4155 63.733 11.5916 63.197 11.9439 62.7273C12.2962 62.2538 12.7791 61.8826 13.3928 61.6136C14.0102 61.3409 14.7109 61.2045 15.495 61.2045C16.2791 61.2045 16.978 61.3409 17.5916 61.6136C18.209 61.8864 18.6939 62.2595 19.0462 62.733C19.3984 63.2027 19.5765 63.7367 19.5803 64.3352C19.5765 64.9754 19.3795 65.5341 18.9893 66.0114C18.5992 66.4886 18.0992 66.7898 17.4893 66.9148V66.9943C17.9553 67.0701 18.3776 67.2443 18.7564 67.517C19.139 67.786 19.442 68.125 19.6655 68.5341C19.8928 68.9394 20.0083 69.3845 20.0121 69.8693C20.0083 70.4981 19.8132 71.0606 19.4268 71.5568C19.0405 72.053 18.5064 72.4451 17.8246 72.733C17.1465 73.017 16.37 73.1591 15.495 73.1591ZM15.495 71.3523C15.8852 71.3523 16.2261 71.2822 16.5178 71.142C16.8094 70.9981 17.0367 70.8011 17.1996 70.5511C17.3662 70.2973 17.4496 70.0057 17.4496 69.6761C17.4496 69.339 17.3643 69.0417 17.1939 68.7841C17.0234 68.5227 16.7924 68.3182 16.5007 68.1705C16.209 68.0189 15.8738 67.9432 15.495 67.9432C15.12 67.9432 14.7848 68.0189 14.4893 68.1705C14.1939 68.3182 13.9609 68.5227 13.7905 68.7841C13.6238 69.0417 13.5405 69.339 13.5405 69.6761C13.5405 70.0057 13.6219 70.2973 13.7848 70.5511C13.9477 70.8011 14.1768 70.9981 14.4723 71.142C14.7678 71.2822 15.1087 71.3523 15.495 71.3523ZM15.495 66.1534C15.8208 66.1534 16.1106 66.0871 16.3643 65.9545C16.6181 65.822 16.817 65.6383 16.9609 65.4034C17.1049 65.1686 17.1768 64.8977 17.1768 64.5909C17.1768 64.2879 17.1049 64.0227 16.9609 63.7955C16.817 63.5644 16.62 63.3845 16.37 63.2557C16.12 63.1231 15.8284 63.0568 15.495 63.0568C15.1655 63.0568 14.8738 63.1231 14.62 63.2557C14.3662 63.3845 14.1674 63.5644 14.0234 63.7955C13.8833 64.0227 13.8132 64.2879 13.8132 64.5909C13.8132 64.8977 13.8852 65.1686 14.0291 65.4034C14.1731 65.6383 14.3719 65.822 14.6257 65.9545C14.8795 66.0871 15.1693 66.1534 15.495 66.1534Z" fill="#4F4F4F"/>
<path d="M12.4354 86.3636V98H9.97514V88.6989H9.90696L7.24219 90.3693V88.1875L10.1229 86.3636H12.4354ZM19.451 98.1591C18.648 98.1591 17.9321 98.0114 17.3033 97.7159C16.6783 97.4205 16.1821 97.0133 15.8146 96.4943C15.4472 95.9754 15.2559 95.3807 15.2408 94.7102H17.6271C17.6536 95.161 17.843 95.5265 18.1953 95.8068C18.5476 96.0871 18.9661 96.2273 19.451 96.2273C19.8374 96.2273 20.1783 96.142 20.4737 95.9716C20.773 95.7973 21.0059 95.5568 21.1726 95.25C21.343 94.9394 21.4283 94.5833 21.4283 94.1818C21.4283 93.7727 21.3411 93.4129 21.1669 93.1023C20.9964 92.7917 20.7597 92.5492 20.4567 92.375C20.1536 92.2008 19.8071 92.1117 19.4169 92.108C19.076 92.108 18.7446 92.178 18.4226 92.3182C18.1044 92.4583 17.8563 92.6496 17.6783 92.892L15.4908 92.5L16.0419 86.3636H23.1555V88.375H18.0703L17.7692 91.2898H17.8374C18.0419 91.0019 18.3506 90.7633 18.7635 90.5739C19.1764 90.3845 19.6385 90.2898 20.1499 90.2898C20.8506 90.2898 21.4756 90.4545 22.0249 90.7841C22.5741 91.1136 23.0078 91.5663 23.326 92.142C23.6442 92.714 23.8014 93.3731 23.7976 94.1193C23.8014 94.9034 23.6196 95.6004 23.2521 96.2102C22.8885 96.8163 22.379 97.2936 21.7237 97.642C21.0722 97.9867 20.3146 98.1591 19.451 98.1591Z" fill="#4F4F4F"/>
<path d="M6.36506 123V121.227L10.5071 117.392C10.8594 117.051 11.1548 116.744 11.3935 116.472C11.6359 116.199 11.8196 115.932 11.9446 115.67C12.0696 115.405 12.1321 115.119 12.1321 114.812C12.1321 114.472 12.0545 114.178 11.8991 113.932C11.7438 113.682 11.5317 113.491 11.2628 113.358C10.9938 113.222 10.6889 113.153 10.348 113.153C9.99195 113.153 9.68134 113.225 9.41619 113.369C9.15104 113.513 8.9465 113.72 8.80256 113.989C8.65862 114.258 8.58665 114.578 8.58665 114.949H6.25142C6.25142 114.187 6.42377 113.527 6.76847 112.966C7.11316 112.405 7.59612 111.972 8.21733 111.665C8.83854 111.358 9.55445 111.205 10.3651 111.205C11.1984 111.205 11.9238 111.352 12.5412 111.648C13.1624 111.939 13.6454 112.345 13.9901 112.864C14.3348 113.383 14.5071 113.977 14.5071 114.648C14.5071 115.087 14.42 115.521 14.2457 115.949C14.0753 116.377 13.7704 116.852 13.331 117.375C12.8916 117.894 12.2723 118.517 11.473 119.244L9.77415 120.909V120.989H14.6605V123H6.36506ZM16.4432 123V121.227L20.5852 117.392C20.9375 117.051 21.233 116.744 21.4716 116.472C21.714 116.199 21.8977 115.932 22.0227 115.67C22.1477 115.405 22.2102 115.119 22.2102 114.812C22.2102 114.472 22.1326 114.178 21.9773 113.932C21.822 113.682 21.6098 113.491 21.3409 113.358C21.072 113.222 20.767 113.153 20.4261 113.153C20.0701 113.153 19.7595 113.225 19.4943 113.369C19.2292 113.513 19.0246 113.72 18.8807 113.989C18.7367 114.258 18.6648 114.578 18.6648 114.949H16.3295C16.3295 114.187 16.5019 113.527 16.8466 112.966C17.1913 112.405 17.6742 111.972 18.2955 111.665C18.9167 111.358 19.6326 111.205 20.4432 111.205C21.2765 111.205 22.0019 111.352 22.6193 111.648C23.2405 111.939 23.7235 112.345 24.0682 112.864C24.4129 113.383 24.5852 113.977 24.5852 114.648C24.5852 115.087 24.4981 115.521 24.3239 115.949C24.1534 116.377 23.8485 116.852 23.4091 117.375C22.9697 117.894 22.3504 118.517 21.5511 119.244L19.8523 120.909V120.989H24.7386V123H16.4432Z" fill="#4F4F4F"/>
<path d="M6.12287 148V146.227L10.2649 142.392C10.6172 142.051 10.9126 141.744 11.1513 141.472C11.3937 141.199 11.5774 140.932 11.7024 140.67C11.8274 140.405 11.8899 140.119 11.8899 139.812C11.8899 139.472 11.8123 139.178 11.657 138.932C11.5017 138.682 11.2895 138.491 11.0206 138.358C10.7517 138.222 10.4467 138.153 10.1058 138.153C9.74976 138.153 9.43916 138.225 9.17401 138.369C8.90885 138.513 8.70431 138.72 8.56037 138.989C8.41643 139.258 8.34446 139.578 8.34446 139.949H6.00923C6.00923 139.187 6.18158 138.527 6.52628 137.966C6.87098 137.405 7.35393 136.972 7.97514 136.665C8.59635 136.358 9.31226 136.205 10.1229 136.205C10.9562 136.205 11.6816 136.352 12.299 136.648C12.9202 136.939 13.4032 137.345 13.7479 137.864C14.0926 138.383 14.2649 138.977 14.2649 139.648C14.2649 140.087 14.1778 140.521 14.0036 140.949C13.8331 141.377 13.5282 141.852 13.0888 142.375C12.6494 142.894 12.0301 143.517 11.2308 144.244L9.53196 145.909V145.989H14.4183V148H6.12287ZM20.4112 136.205C21.0097 136.205 21.5855 136.305 22.1385 136.506C22.6953 136.706 23.1915 137.027 23.6271 137.466C24.0665 137.905 24.4131 138.489 24.6669 139.216C24.9245 139.939 25.0552 140.828 25.0589 141.881C25.0589 142.869 24.9472 143.752 24.7237 144.528C24.504 145.301 24.1877 145.958 23.7749 146.5C23.362 147.042 22.8639 147.455 22.2805 147.739C21.6972 148.019 21.0457 148.159 20.326 148.159C19.5495 148.159 18.8639 148.009 18.2692 147.71C17.6745 147.407 17.1953 146.996 16.8317 146.477C16.4718 145.955 16.254 145.367 16.1783 144.716H18.6044C18.6991 145.14 18.898 145.47 19.201 145.705C19.504 145.936 19.879 146.051 20.326 146.051C21.0836 146.051 21.6593 145.722 22.0533 145.062C22.4472 144.4 22.6461 143.492 22.6499 142.341H22.5703C22.3961 142.682 22.1612 142.975 21.8658 143.222C21.5703 143.464 21.2313 143.652 20.8487 143.784C20.4699 143.917 20.0665 143.983 19.6385 143.983C18.9529 143.983 18.3411 143.822 17.8033 143.5C17.2654 143.178 16.8411 142.735 16.5305 142.17C16.2199 141.606 16.0646 140.962 16.0646 140.239C16.0608 139.458 16.2408 138.763 16.6044 138.153C16.968 137.544 17.4756 137.066 18.1271 136.722C18.7824 136.373 19.5438 136.201 20.4112 136.205ZM20.4283 138.136C20.0457 138.136 19.7048 138.227 19.4055 138.409C19.1101 138.591 18.8752 138.835 18.701 139.142C18.5305 139.449 18.4472 139.792 18.451 140.17C18.451 140.553 18.5343 140.898 18.701 141.205C18.8714 141.508 19.1025 141.75 19.3942 141.932C19.6896 142.11 20.0268 142.199 20.4055 142.199C20.6896 142.199 20.9529 142.146 21.1953 142.04C21.4377 141.934 21.648 141.788 21.826 141.602C22.0078 141.413 22.1499 141.195 22.2521 140.949C22.3544 140.703 22.4055 140.441 22.4055 140.165C22.4018 139.797 22.3146 139.46 22.1442 139.153C21.9737 138.847 21.7389 138.6 21.4396 138.415C21.1404 138.229 20.8033 138.136 20.4283 138.136Z" fill="#4F4F4F"/>
<path d="M52.4041 48V46.2273L56.5462 42.392C56.8984 42.0511 57.1939 41.7443 57.4325 41.4716C57.675 41.1989 57.8587 40.9318 57.9837 40.6705C58.1087 40.4053 58.1712 40.1193 58.1712 39.8125C58.1712 39.4716 58.0935 39.178 57.9382 38.9318C57.7829 38.6818 57.5708 38.4905 57.3018 38.358C57.0329 38.2216 56.728 38.1534 56.3871 38.1534C56.031 38.1534 55.7204 38.2254 55.4553 38.3693C55.1901 38.5133 54.9856 38.7197 54.8416 38.9886C54.6977 39.2576 54.6257 39.5777 54.6257 39.9489H52.2905C52.2905 39.1875 52.4628 38.5265 52.8075 37.9659C53.1522 37.4053 53.6352 36.9716 54.2564 36.6648C54.8776 36.358 55.5935 36.2045 56.4041 36.2045C57.2375 36.2045 57.9628 36.3523 58.5803 36.6477C59.2015 36.9394 59.6844 37.3447 60.0291 37.8636C60.3738 38.3826 60.5462 38.9773 60.5462 39.6477C60.5462 40.0871 60.459 40.5208 60.2848 40.9489C60.1143 41.3769 59.8094 41.8523 59.37 42.375C58.9306 42.8939 58.3113 43.517 57.5121 44.2443L55.8132 45.9091V45.9886H60.6996V48H52.4041Z" fill="#4F4F4F"/>
<path d="M56.3722 61.2045C56.9706 61.2045 57.5464 61.3049 58.0994 61.5057C58.6563 61.7064 59.1525 62.0265 59.5881 62.4659C60.0275 62.9053 60.3741 63.4886 60.6278 64.2159C60.8854 64.9394 61.0161 65.8277 61.0199 66.8807C61.0199 67.8693 60.9081 68.7519 60.6847 69.5284C60.465 70.3011 60.1487 70.9583 59.7358 71.5C59.3229 72.0417 58.8248 72.4545 58.2415 72.7386C57.6581 73.0189 57.0066 73.1591 56.2869 73.1591C55.5104 73.1591 54.8248 73.0095 54.2301 72.7102C53.6354 72.4072 53.1563 71.9962 52.7926 71.4773C52.4328 70.9545 52.215 70.3674 52.1392 69.7159H54.5653C54.66 70.1402 54.8589 70.4697 55.1619 70.7045C55.465 70.9356 55.84 71.0511 56.2869 71.0511C57.0445 71.0511 57.6203 70.7216 58.0142 70.0625C58.4081 69.3996 58.607 68.4924 58.6108 67.3409H58.5312C58.357 67.6818 58.1222 67.9754 57.8267 68.2216C57.5313 68.464 57.1922 68.6515 56.8097 68.7841C56.4309 68.9167 56.0275 68.983 55.5994 68.983C54.9138 68.983 54.3021 68.822 53.7642 68.5C53.2263 68.178 52.8021 67.7348 52.4915 67.1705C52.1809 66.6061 52.0256 65.9621 52.0256 65.2386C52.0218 64.4583 52.2017 63.7633 52.5653 63.1534C52.929 62.5436 53.4366 62.0663 54.0881 61.7216C54.7434 61.3731 55.5047 61.2008 56.3722 61.2045ZM56.3892 63.1364C56.0066 63.1364 55.6657 63.2273 55.3665 63.4091C55.071 63.5909 54.8362 63.8352 54.6619 64.142C54.4915 64.4489 54.4081 64.7917 54.4119 65.1705C54.4119 65.553 54.4953 65.8977 54.6619 66.2045C54.8324 66.5076 55.0634 66.75 55.3551 66.9318C55.6506 67.1098 55.9877 67.1989 56.3665 67.1989C56.6506 67.1989 56.9138 67.1458 57.1562 67.0398C57.3987 66.9337 57.6089 66.7879 57.7869 66.6023C57.9688 66.4129 58.1108 66.1951 58.2131 65.9489C58.3153 65.7027 58.3665 65.4413 58.3665 65.1648C58.3627 64.7973 58.2756 64.4602 58.1051 64.1534C57.9347 63.8466 57.6998 63.6004 57.4006 63.4148C57.1013 63.2292 56.7642 63.1364 56.3892 63.1364Z" fill="#4F4F4F"/>
<path d="M53.3104 86.3636V98H50.8501V88.6989H50.782L48.1172 90.3693V88.1875L50.9979 86.3636H53.3104ZM60.5419 98.1591C59.9434 98.1553 59.3658 98.0549 58.8089 97.858C58.2559 97.661 57.7597 97.3409 57.3203 96.8977C56.8809 96.4545 56.5324 95.8674 56.2749 95.1364C56.0211 94.4053 55.8942 93.5076 55.8942 92.4432C55.898 91.4659 56.0097 90.5928 56.2294 89.8239C56.4529 89.0511 56.7711 88.3958 57.1839 87.858C57.6006 87.3201 58.0987 86.911 58.6783 86.6307C59.2578 86.3466 59.9074 86.2045 60.6271 86.2045C61.4036 86.2045 62.0893 86.3561 62.6839 86.6591C63.2786 86.9583 63.7559 87.3655 64.1158 87.8807C64.4794 88.3958 64.6991 88.9735 64.7749 89.6136H62.3487C62.254 89.2083 62.0552 88.8902 61.7521 88.6591C61.4491 88.428 61.0741 88.3125 60.6271 88.3125C59.8696 88.3125 59.2938 88.642 58.8999 89.3011C58.5097 89.9602 58.3108 90.8561 58.3033 91.9886H58.3828C58.5571 91.6439 58.7919 91.3504 59.0874 91.108C59.3866 90.8617 59.7256 90.6742 60.1044 90.5455C60.487 90.4129 60.8904 90.3466 61.3146 90.3466C62.004 90.3466 62.6177 90.5095 63.1555 90.8352C63.6934 91.1572 64.1177 91.6004 64.4283 92.1648C64.7389 92.7292 64.8942 93.375 64.8942 94.1023C64.8942 94.8902 64.7105 95.5909 64.343 96.2045C63.9794 96.8182 63.4699 97.2992 62.8146 97.6477C62.1631 97.9924 61.4055 98.1629 60.5419 98.1591ZM60.5305 96.2273C60.9093 96.2273 61.2483 96.1364 61.5476 95.9545C61.8468 95.7727 62.0817 95.5265 62.2521 95.2159C62.4226 94.9053 62.5078 94.5568 62.5078 94.1705C62.5078 93.7841 62.4226 93.4375 62.2521 93.1307C62.0855 92.8239 61.8544 92.5795 61.5589 92.3977C61.2635 92.2159 60.9264 92.125 60.5476 92.125C60.2635 92.125 60.0002 92.178 59.7578 92.2841C59.5192 92.3902 59.3089 92.5379 59.1271 92.7273C58.9491 92.9167 58.8089 93.1364 58.7067 93.3864C58.6044 93.6326 58.5533 93.8958 58.5533 94.1761C58.5533 94.5511 58.6385 94.8939 58.8089 95.2045C58.9832 95.5152 59.218 95.7633 59.5135 95.9489C59.8127 96.1345 60.1518 96.2273 60.5305 96.2273Z" fill="#4F4F4F"/>
<path d="M47.1307 123V121.227L51.2727 117.392C51.625 117.051 51.9205 116.744 52.1591 116.472C52.4015 116.199 52.5852 115.932 52.7102 115.67C52.8352 115.405 52.8977 115.119 52.8977 114.812C52.8977 114.472 52.8201 114.178 52.6648 113.932C52.5095 113.682 52.2973 113.491 52.0284 113.358C51.7595 113.222 51.4545 113.153 51.1136 113.153C50.7576 113.153 50.447 113.225 50.1818 113.369C49.9167 113.513 49.7121 113.72 49.5682 113.989C49.4242 114.258 49.3523 114.578 49.3523 114.949H47.017C47.017 114.187 47.1894 113.527 47.5341 112.966C47.8788 112.405 48.3617 111.972 48.983 111.665C49.6042 111.358 50.3201 111.205 51.1307 111.205C51.964 111.205 52.6894 111.352 53.3068 111.648C53.928 111.939 54.411 112.345 54.7557 112.864C55.1004 113.383 55.2727 113.977 55.2727 114.648C55.2727 115.087 55.1856 115.521 55.0114 115.949C54.8409 116.377 54.536 116.852 54.0966 117.375C53.6572 117.894 53.0379 118.517 52.2386 119.244L50.5398 120.909V120.989H55.4261V123H47.1307ZM61.5099 123.159C60.6615 123.159 59.9058 123.013 59.2429 122.722C58.5838 122.426 58.063 122.021 57.6804 121.506C57.3016 120.987 57.1065 120.388 57.0952 119.71H59.5724C59.5876 119.994 59.6804 120.244 59.8509 120.46C60.0251 120.672 60.2562 120.837 60.544 120.955C60.8319 121.072 61.1558 121.131 61.5156 121.131C61.8906 121.131 62.2221 121.064 62.5099 120.932C62.7978 120.799 63.0232 120.616 63.1861 120.381C63.349 120.146 63.4304 119.875 63.4304 119.568C63.4304 119.258 63.3433 118.983 63.169 118.744C62.9986 118.502 62.7524 118.312 62.4304 118.176C62.1122 118.04 61.7334 117.972 61.294 117.972H60.2088V116.165H61.294C61.6652 116.165 61.9929 116.1 62.277 115.972C62.5649 115.843 62.7884 115.665 62.9474 115.438C63.1065 115.206 63.1861 114.938 63.1861 114.631C63.1861 114.339 63.116 114.083 62.9759 113.864C62.8395 113.64 62.6463 113.466 62.3963 113.341C62.1501 113.216 61.8622 113.153 61.5327 113.153C61.1993 113.153 60.8944 113.214 60.6179 113.335C60.3414 113.453 60.1198 113.621 59.9531 113.841C59.7865 114.061 59.6974 114.318 59.6861 114.614H57.3281C57.3395 113.943 57.5308 113.352 57.902 112.841C58.2732 112.33 58.7732 111.93 59.402 111.642C60.0346 111.35 60.7486 111.205 61.544 111.205C62.3471 111.205 63.0497 111.35 63.652 111.642C64.2543 111.934 64.7221 112.328 65.0554 112.824C65.3925 113.316 65.5592 113.869 65.5554 114.483C65.5592 115.134 65.3565 115.678 64.9474 116.114C64.5421 116.549 64.0137 116.826 63.3622 116.943V117.034C64.2183 117.144 64.8698 117.441 65.3168 117.926C65.7675 118.407 65.991 119.009 65.9872 119.733C65.991 120.396 65.7997 120.985 65.4134 121.5C65.0308 122.015 64.5024 122.42 63.8281 122.716C63.1539 123.011 62.3812 123.159 61.5099 123.159Z" fill="#4F4F4F"/>
<path d="M50.9631 148.159C50.1146 148.159 49.3589 148.013 48.696 147.722C48.0369 147.426 47.5161 147.021 47.1335 146.506C46.7547 145.987 46.5597 145.388 46.5483 144.71H49.0256C49.0407 144.994 49.1335 145.244 49.304 145.46C49.4782 145.672 49.7093 145.837 49.9972 145.955C50.285 146.072 50.6089 146.131 50.9688 146.131C51.3438 146.131 51.6752 146.064 51.9631 145.932C52.2509 145.799 52.4763 145.616 52.6392 145.381C52.8021 145.146 52.8835 144.875 52.8835 144.568C52.8835 144.258 52.7964 143.983 52.6222 143.744C52.4517 143.502 52.2055 143.312 51.8835 143.176C51.5653 143.04 51.1866 142.972 50.7472 142.972H49.6619V141.165H50.7472C51.1184 141.165 51.446 141.1 51.7301 140.972C52.018 140.843 52.2415 140.665 52.4006 140.438C52.5597 140.206 52.6392 139.938 52.6392 139.631C52.6392 139.339 52.5691 139.083 52.429 138.864C52.2926 138.64 52.0994 138.466 51.8494 138.341C51.6032 138.216 51.3153 138.153 50.9858 138.153C50.6525 138.153 50.3475 138.214 50.071 138.335C49.7945 138.453 49.5729 138.621 49.4062 138.841C49.2396 139.061 49.1506 139.318 49.1392 139.614H46.7812C46.7926 138.943 46.9839 138.352 47.3551 137.841C47.7263 137.33 48.2263 136.93 48.8551 136.642C49.4877 136.35 50.2017 136.205 50.9972 136.205C51.8002 136.205 52.5028 136.35 53.1051 136.642C53.7074 136.934 54.1752 137.328 54.5085 137.824C54.8456 138.316 55.0123 138.869 55.0085 139.483C55.0123 140.134 54.8097 140.678 54.4006 141.114C53.9953 141.549 53.4669 141.826 52.8153 141.943V142.034C53.6714 142.144 54.3229 142.441 54.7699 142.926C55.2206 143.407 55.4441 144.009 55.4403 144.733C55.4441 145.396 55.2528 145.985 54.8665 146.5C54.4839 147.015 53.9555 147.42 53.2812 147.716C52.607 148.011 51.8343 148.159 50.9631 148.159ZM61.7713 148.256C60.794 148.252 59.9531 148.011 59.2486 147.534C58.5478 147.057 58.008 146.366 57.6293 145.46C57.2543 144.555 57.0687 143.466 57.0724 142.193C57.0724 140.924 57.2599 139.843 57.6349 138.949C58.0137 138.055 58.5535 137.375 59.2543 136.909C59.9588 136.439 60.7978 136.205 61.7713 136.205C62.7448 136.205 63.5819 136.439 64.2827 136.909C64.9872 137.379 65.5289 138.061 65.9077 138.955C66.2865 139.845 66.474 140.924 66.4702 142.193C66.4702 143.47 66.2808 144.561 65.902 145.466C65.527 146.371 64.9891 147.062 64.2884 147.54C63.5876 148.017 62.7486 148.256 61.7713 148.256ZM61.7713 146.216C62.438 146.216 62.9702 145.881 63.3679 145.21C63.7656 144.54 63.9626 143.534 63.9588 142.193C63.9588 141.311 63.8679 140.576 63.6861 139.989C63.508 139.402 63.2543 138.96 62.9247 138.665C62.599 138.369 62.2145 138.222 61.7713 138.222C61.1084 138.222 60.5781 138.553 60.1804 139.216C59.7827 139.879 59.5819 140.871 59.5781 142.193C59.5781 143.087 59.6671 143.833 59.8452 144.432C60.027 145.027 60.2827 145.473 60.6122 145.773C60.9418 146.068 61.3281 146.216 61.7713 146.216Z" fill="#4F4F4F"/>
<path d="M97.4709 48.1591C96.6224 48.1591 95.8667 48.0133 95.2038 47.7216C94.5447 47.4261 94.0239 47.0208 93.6413 46.5057C93.2625 45.9867 93.0675 45.3883 93.0561 44.7102H95.5334C95.5485 44.9943 95.6413 45.2443 95.8118 45.4602C95.986 45.6723 96.2171 45.8371 96.505 45.9545C96.7929 46.072 97.1167 46.1307 97.4766 46.1307C97.8516 46.1307 98.183 46.0644 98.4709 45.9318C98.7588 45.7992 98.9841 45.6155 99.147 45.3807C99.3099 45.1458 99.3913 44.875 99.3913 44.5682C99.3913 44.2576 99.3042 43.983 99.13 43.7443C98.9595 43.5019 98.7133 43.3125 98.3913 43.1761C98.0732 43.0398 97.6944 42.9716 97.255 42.9716H96.1697V41.1648H97.255C97.6262 41.1648 97.9538 41.1004 98.2379 40.9716C98.5258 40.8428 98.7493 40.6648 98.9084 40.4375C99.0675 40.2064 99.147 39.9375 99.147 39.6307C99.147 39.339 99.0769 39.0833 98.9368 38.8636C98.8004 38.6402 98.6072 38.4659 98.3572 38.3409C98.111 38.2159 97.8232 38.1534 97.4936 38.1534C97.1603 38.1534 96.8554 38.214 96.5788 38.3352C96.3023 38.4527 96.0807 38.6212 95.9141 38.8409C95.7474 39.0606 95.6584 39.3182 95.647 39.6136H93.2891C93.3004 38.9432 93.4917 38.3523 93.8629 37.8409C94.2341 37.3295 94.7341 36.9299 95.3629 36.642C95.9955 36.3504 96.7095 36.2045 97.505 36.2045C98.308 36.2045 99.0107 36.3504 99.6129 36.642C100.215 36.9337 100.683 37.3277 101.016 37.8239C101.353 38.3163 101.52 38.8693 101.516 39.483C101.52 40.1345 101.317 40.678 100.908 41.1136C100.503 41.5492 99.9747 41.8258 99.3232 41.9432V42.0341C100.179 42.1439 100.831 42.4413 101.278 42.9261C101.728 43.4072 101.952 44.0095 101.948 44.733C101.952 45.3958 101.761 45.9848 101.374 46.5C100.992 47.0152 100.463 47.4205 99.7891 47.7159C99.1148 48.0114 98.3421 48.1591 97.4709 48.1591Z" fill="#4F4F4F"/>
<path d="M94.0838 61.3636V73H91.6236V63.6989H91.5554L88.8906 65.3693V63.1875L91.7713 61.3636H94.0838ZM101.412 73.2557C100.435 73.2519 99.5938 73.0114 98.8892 72.5341C98.1884 72.0568 97.6487 71.3655 97.2699 70.4602C96.8949 69.5549 96.7093 68.4659 96.7131 67.1932C96.7131 65.9242 96.9006 64.8428 97.2756 63.9489C97.6544 63.0549 98.1941 62.375 98.8949 61.9091C99.5994 61.4394 100.438 61.2045 101.412 61.2045C102.385 61.2045 103.223 61.4394 103.923 61.9091C104.628 62.3788 105.17 63.0606 105.548 63.9545C105.927 64.8447 106.115 65.9242 106.111 67.1932C106.111 68.4697 105.921 69.5606 105.543 70.4659C105.168 71.3712 104.63 72.0625 103.929 72.5398C103.228 73.017 102.389 73.2557 101.412 73.2557ZM101.412 71.2159C102.079 71.2159 102.611 70.8807 103.009 70.2102C103.406 69.5398 103.603 68.5341 103.599 67.1932C103.599 66.3106 103.509 65.5758 103.327 64.9886C103.149 64.4015 102.895 63.9602 102.565 63.6648C102.24 63.3693 101.855 63.2216 101.412 63.2216C100.749 63.2216 100.219 63.553 99.821 64.2159C99.4233 64.8788 99.2225 65.8712 99.2188 67.1932C99.2188 68.0871 99.3078 68.8333 99.4858 69.4318C99.6676 70.0265 99.9233 70.4735 100.253 70.7727C100.582 71.0682 100.969 71.2159 101.412 71.2159Z" fill="#4F4F4F"/>
<path d="M94.8338 86.3636V98H92.3736V88.6989H92.3054L89.6406 90.3693V88.1875L92.5213 86.3636H94.8338ZM98.0597 98L102.884 88.4545V88.375H97.2642V86.3636H105.429V88.4034L100.599 98H98.0597Z" fill="#4F4F4F"/>
<path d="M88.1072 123V121.227L92.2493 117.392C92.6016 117.051 92.897 116.744 93.1357 116.472C93.3781 116.199 93.5618 115.932 93.6868 115.67C93.8118 115.405 93.8743 115.119 93.8743 114.812C93.8743 114.472 93.7966 114.178 93.6413 113.932C93.486 113.682 93.2739 113.491 93.005 113.358C92.736 113.222 92.4311 113.153 92.0902 113.153C91.7341 113.153 91.4235 113.225 91.1584 113.369C90.8932 113.513 90.6887 113.72 90.5447 113.989C90.4008 114.258 90.3288 114.578 90.3288 114.949H87.9936C87.9936 114.187 88.166 113.527 88.5107 112.966C88.8554 112.405 89.3383 111.972 89.9595 111.665C90.5807 111.358 91.2966 111.205 92.1072 111.205C92.9406 111.205 93.666 111.352 94.2834 111.648C94.9046 111.939 95.3875 112.345 95.7322 112.864C96.0769 113.383 96.2493 113.977 96.2493 114.648C96.2493 115.087 96.1622 115.521 95.9879 115.949C95.8175 116.377 95.5125 116.852 95.0732 117.375C94.6338 117.894 94.0144 118.517 93.2152 119.244L91.5163 120.909V120.989H96.4027V123H88.1072ZM97.7592 120.955V119.017L102.617 111.364H104.288V114.045H103.299L100.237 118.892V118.983H107.14V120.955H97.7592ZM103.344 123V120.364L103.39 119.506V111.364H105.697V123H103.344Z" fill="#4F4F4F"/>
<path d="M135.845 45.9545V44.017L140.703 36.3636H142.374V39.0455H141.385L138.322 43.892V43.983H145.226V45.9545H135.845ZM141.43 48V45.3636L141.476 44.5057V36.3636H143.783V48H141.43Z" fill="#4F4F4F"/>
<path d="M138.678 61.3636V73H136.217V63.6989H136.149L133.484 65.3693V63.1875L136.365 61.3636H138.678ZM146.506 61.3636V73H144.045V63.6989H143.977L141.312 65.3693V63.1875L144.193 61.3636H146.506Z" fill="#4F4F4F"/>
<path d="M137.303 86.3636V98H134.842V88.6989H134.774L132.109 90.3693V88.1875L134.99 86.3636H137.303ZM144.409 98.1591C143.534 98.1591 142.756 98.017 142.074 97.733C141.396 97.4451 140.864 97.053 140.477 96.5568C140.091 96.0606 139.898 95.4981 139.898 94.8693C139.898 94.3845 140.008 93.9394 140.227 93.5341C140.451 93.125 140.754 92.786 141.136 92.517C141.519 92.2443 141.947 92.0701 142.42 91.9943V91.9148C141.799 91.7898 141.295 91.4886 140.909 91.0114C140.523 90.5303 140.33 89.9716 140.33 89.3352C140.33 88.733 140.506 88.197 140.858 87.7273C141.21 87.2538 141.693 86.8826 142.307 86.6136C142.924 86.3409 143.625 86.2045 144.409 86.2045C145.193 86.2045 145.892 86.3409 146.506 86.6136C147.123 86.8864 147.608 87.2595 147.96 87.733C148.313 88.2027 148.491 88.7367 148.494 89.3352C148.491 89.9754 148.294 90.5341 147.903 91.0114C147.513 91.4886 147.013 91.7898 146.403 91.9148V91.9943C146.869 92.0701 147.292 92.2443 147.67 92.517C148.053 92.786 148.356 93.125 148.58 93.5341C148.807 93.9394 148.922 94.3845 148.926 94.8693C148.922 95.4981 148.727 96.0606 148.341 96.5568C147.955 97.053 147.42 97.4451 146.739 97.733C146.061 98.017 145.284 98.1591 144.409 98.1591ZM144.409 96.3523C144.799 96.3523 145.14 96.2822 145.432 96.142C145.723 95.9981 145.951 95.8011 146.114 95.5511C146.28 95.2973 146.364 95.0057 146.364 94.6761C146.364 94.339 146.278 94.0417 146.108 93.7841C145.938 93.5227 145.706 93.3182 145.415 93.1705C145.123 93.0189 144.788 92.9432 144.409 92.9432C144.034 92.9432 143.699 93.0189 143.403 93.1705C143.108 93.3182 142.875 93.5227 142.705 93.7841C142.538 94.0417 142.455 94.339 142.455 94.6761C142.455 95.0057 142.536 95.2973 142.699 95.5511C142.862 95.8011 143.091 95.9981 143.386 96.142C143.682 96.2822 144.023 96.3523 144.409 96.3523ZM144.409 91.1534C144.735 91.1534 145.025 91.0871 145.278 90.9545C145.532 90.822 145.731 90.6383 145.875 90.4034C146.019 90.1686 146.091 89.8977 146.091 89.5909C146.091 89.2879 146.019 89.0227 145.875 88.7955C145.731 88.5644 145.534 88.3845 145.284 88.2557C145.034 88.1231 144.742 88.0568 144.409 88.0568C144.08 88.0568 143.788 88.1231 143.534 88.2557C143.28 88.3845 143.081 88.5644 142.938 88.7955C142.797 89.0227 142.727 89.2879 142.727 89.5909C142.727 89.8977 142.799 90.1686 142.943 90.4034C143.087 90.6383 143.286 90.822 143.54 90.9545C143.794 91.0871 144.083 91.1534 144.409 91.1534Z" fill="#4F4F4F"/>
<path d="M131.248 123V121.227L135.39 117.392C135.742 117.051 136.038 116.744 136.276 116.472C136.519 116.199 136.702 115.932 136.827 115.67C136.952 115.405 137.015 115.119 137.015 114.812C137.015 114.472 136.937 114.178 136.782 113.932C136.627 113.682 136.415 113.491 136.146 113.358C135.877 113.222 135.572 113.153 135.231 113.153C134.875 113.153 134.564 113.225 134.299 113.369C134.034 113.513 133.829 113.72 133.685 113.989C133.541 114.258 133.469 114.578 133.469 114.949H131.134C131.134 114.187 131.307 113.527 131.651 112.966C131.996 112.405 132.479 111.972 133.1 111.665C133.721 111.358 134.437 111.205 135.248 111.205C136.081 111.205 136.807 111.352 137.424 111.648C138.045 111.939 138.528 112.345 138.873 112.864C139.218 113.383 139.39 113.977 139.39 114.648C139.39 115.087 139.303 115.521 139.129 115.949C138.958 116.377 138.653 116.852 138.214 117.375C137.774 117.894 137.155 118.517 136.356 119.244L134.657 120.909V120.989H139.543V123H131.248ZM145.576 123.159C144.773 123.159 144.057 123.011 143.428 122.716C142.803 122.42 142.307 122.013 141.94 121.494C141.572 120.975 141.381 120.381 141.366 119.71H143.752C143.779 120.161 143.968 120.527 144.32 120.807C144.673 121.087 145.091 121.227 145.576 121.227C145.962 121.227 146.303 121.142 146.599 120.972C146.898 120.797 147.131 120.557 147.298 120.25C147.468 119.939 147.553 119.583 147.553 119.182C147.553 118.773 147.466 118.413 147.292 118.102C147.121 117.792 146.885 117.549 146.582 117.375C146.279 117.201 145.932 117.112 145.542 117.108C145.201 117.108 144.87 117.178 144.548 117.318C144.229 117.458 143.981 117.65 143.803 117.892L141.616 117.5L142.167 111.364H149.281V113.375H144.195L143.894 116.29H143.962C144.167 116.002 144.476 115.763 144.888 115.574C145.301 115.384 145.763 115.29 146.275 115.29C146.976 115.29 147.601 115.455 148.15 115.784C148.699 116.114 149.133 116.566 149.451 117.142C149.769 117.714 149.926 118.373 149.923 119.119C149.926 119.903 149.745 120.6 149.377 121.21C149.013 121.816 148.504 122.294 147.849 122.642C147.197 122.987 146.44 123.159 145.576 123.159Z" fill="#4F4F4F"/>
<path d="M184.537 48.1591C183.734 48.1591 183.018 48.0114 182.389 47.7159C181.764 47.4205 181.268 47.0133 180.901 46.4943C180.533 45.9754 180.342 45.3807 180.327 44.7102H182.713C182.74 45.161 182.929 45.5265 183.281 45.8068C183.634 46.0871 184.052 46.2273 184.537 46.2273C184.923 46.2273 185.264 46.142 185.56 45.9716C185.859 45.7973 186.092 45.5568 186.259 45.25C186.429 44.9394 186.514 44.5833 186.514 44.1818C186.514 43.7727 186.427 43.4129 186.253 43.1023C186.082 42.7917 185.846 42.5492 185.543 42.375C185.24 42.2008 184.893 42.1117 184.503 42.108C184.162 42.108 183.83 42.178 183.509 42.3182C183.19 42.4583 182.942 42.6496 182.764 42.892L180.577 42.5L181.128 36.3636H188.241V38.375H183.156L182.855 41.2898H182.923C183.128 41.0019 183.437 40.7633 183.849 40.5739C184.262 40.3845 184.724 40.2898 185.236 40.2898C185.937 40.2898 186.562 40.4545 187.111 40.7841C187.66 41.1136 188.094 41.5663 188.412 42.142C188.73 42.714 188.887 43.3731 188.884 44.1193C188.887 44.9034 188.705 45.6004 188.338 46.2102C187.974 46.8163 187.465 47.2936 186.81 47.642C186.158 47.9867 185.401 48.1591 184.537 48.1591Z" fill="#4F4F4F"/>
<path d="M181.553 61.3636V73H179.092V63.6989H179.024L176.359 65.3693V63.1875L179.24 61.3636H181.553ZM184.318 73V71.2273L188.46 67.392C188.813 67.0511 189.108 66.7443 189.347 66.4716C189.589 66.1989 189.773 65.9318 189.898 65.6705C190.023 65.4053 190.085 65.1193 190.085 64.8125C190.085 64.4716 190.008 64.178 189.852 63.9318C189.697 63.6818 189.485 63.4905 189.216 63.358C188.947 63.2216 188.642 63.1534 188.301 63.1534C187.945 63.1534 187.634 63.2254 187.369 63.3693C187.104 63.5133 186.9 63.7197 186.756 63.9886C186.612 64.2576 186.54 64.5777 186.54 64.9489H184.205C184.205 64.1875 184.377 63.5265 184.722 62.9659C185.066 62.4053 185.549 61.9716 186.17 61.6648C186.792 61.358 187.508 61.2045 188.318 61.2045C189.152 61.2045 189.877 61.3523 190.494 61.6477C191.116 61.9394 191.598 62.3447 191.943 62.8636C192.288 63.3826 192.46 63.9773 192.46 64.6477C192.46 65.0871 192.373 65.5208 192.199 65.9489C192.028 66.3769 191.723 66.8523 191.284 67.375C190.845 67.8939 190.225 68.517 189.426 69.2443L187.727 70.9091V70.9886H192.614V73H184.318Z" fill="#4F4F4F"/>
<path d="M181.31 86.3636V98H178.85V88.6989H178.782L176.117 90.3693V88.1875L178.998 86.3636H181.31ZM188.286 86.2045C188.885 86.2045 189.46 86.3049 190.013 86.5057C190.57 86.7064 191.067 87.0265 191.502 87.4659C191.942 87.9053 192.288 88.4886 192.542 89.2159C192.799 89.9394 192.93 90.8277 192.934 91.8807C192.934 92.8693 192.822 93.7519 192.599 94.5284C192.379 95.3011 192.063 95.9583 191.65 96.5C191.237 97.0417 190.739 97.4545 190.156 97.7386C189.572 98.0189 188.921 98.1591 188.201 98.1591C187.424 98.1591 186.739 98.0095 186.144 97.7102C185.549 97.4072 185.07 96.9962 184.707 96.4773C184.347 95.9545 184.129 95.3674 184.053 94.7159H186.479C186.574 95.1402 186.773 95.4697 187.076 95.7045C187.379 95.9356 187.754 96.0511 188.201 96.0511C188.959 96.0511 189.534 95.7216 189.928 95.0625C190.322 94.3996 190.521 93.4924 190.525 92.3409H190.445C190.271 92.6818 190.036 92.9754 189.741 93.2216C189.445 93.464 189.106 93.6515 188.724 93.7841C188.345 93.9167 187.942 93.983 187.513 93.983C186.828 93.983 186.216 93.822 185.678 93.5C185.14 93.178 184.716 92.7348 184.406 92.1705C184.095 91.6061 183.94 90.9621 183.94 90.2386C183.936 89.4583 184.116 88.7633 184.479 88.1534C184.843 87.5436 185.351 87.0663 186.002 86.7216C186.657 86.3731 187.419 86.2008 188.286 86.2045ZM188.303 88.1364C187.921 88.1364 187.58 88.2273 187.281 88.4091C186.985 88.5909 186.75 88.8352 186.576 89.142C186.406 89.4489 186.322 89.7917 186.326 90.1705C186.326 90.553 186.409 90.8977 186.576 91.2045C186.746 91.5076 186.978 91.75 187.269 91.9318C187.565 92.1098 187.902 92.1989 188.281 92.1989C188.565 92.1989 188.828 92.1458 189.07 92.0398C189.313 91.9337 189.523 91.7879 189.701 91.6023C189.883 91.4129 190.025 91.1951 190.127 90.9489C190.229 90.7027 190.281 90.4413 190.281 90.1648C190.277 89.7973 190.19 89.4602 190.019 89.1534C189.849 88.8466 189.614 88.6004 189.315 88.4148C189.015 88.2292 188.678 88.1364 188.303 88.1364Z" fill="#4F4F4F"/>
<path d="M175.123 123V121.227L179.265 117.392C179.617 117.051 179.913 116.744 180.151 116.472C180.394 116.199 180.577 115.932 180.702 115.67C180.827 115.405 180.89 115.119 180.89 114.812C180.89 114.472 180.812 114.178 180.657 113.932C180.502 113.682 180.29 113.491 180.021 113.358C179.752 113.222 179.447 113.153 179.106 113.153C178.75 113.153 178.439 113.225 178.174 113.369C177.909 113.513 177.704 113.72 177.56 113.989C177.416 114.258 177.344 114.578 177.344 114.949H175.009C175.009 114.187 175.182 113.527 175.526 112.966C175.871 112.405 176.354 111.972 176.975 111.665C177.596 111.358 178.312 111.205 179.123 111.205C179.956 111.205 180.682 111.352 181.299 111.648C181.92 111.939 182.403 112.345 182.748 112.864C183.093 113.383 183.265 113.977 183.265 114.648C183.265 115.087 183.178 115.521 183.004 115.949C182.833 116.377 182.528 116.852 182.089 117.375C181.649 117.894 181.03 118.517 180.231 119.244L178.532 120.909V120.989H183.418V123H175.123ZM189.667 123.159C189.068 123.155 188.491 123.055 187.934 122.858C187.381 122.661 186.885 122.341 186.445 121.898C186.006 121.455 185.657 120.867 185.4 120.136C185.146 119.405 185.019 118.508 185.019 117.443C185.023 116.466 185.135 115.593 185.354 114.824C185.578 114.051 185.896 113.396 186.309 112.858C186.726 112.32 187.224 111.911 187.803 111.631C188.383 111.347 189.032 111.205 189.752 111.205C190.529 111.205 191.214 111.356 191.809 111.659C192.404 111.958 192.881 112.366 193.241 112.881C193.604 113.396 193.824 113.973 193.9 114.614H191.474C191.379 114.208 191.18 113.89 190.877 113.659C190.574 113.428 190.199 113.312 189.752 113.312C188.995 113.312 188.419 113.642 188.025 114.301C187.635 114.96 187.436 115.856 187.428 116.989H187.508C187.682 116.644 187.917 116.35 188.212 116.108C188.512 115.862 188.851 115.674 189.229 115.545C189.612 115.413 190.015 115.347 190.44 115.347C191.129 115.347 191.743 115.509 192.281 115.835C192.818 116.157 193.243 116.6 193.553 117.165C193.864 117.729 194.019 118.375 194.019 119.102C194.019 119.89 193.835 120.591 193.468 121.205C193.104 121.818 192.595 122.299 191.94 122.648C191.288 122.992 190.531 123.163 189.667 123.159ZM189.656 121.227C190.034 121.227 190.373 121.136 190.673 120.955C190.972 120.773 191.207 120.527 191.377 120.216C191.548 119.905 191.633 119.557 191.633 119.17C191.633 118.784 191.548 118.437 191.377 118.131C191.21 117.824 190.979 117.58 190.684 117.398C190.388 117.216 190.051 117.125 189.673 117.125C189.388 117.125 189.125 117.178 188.883 117.284C188.644 117.39 188.434 117.538 188.252 117.727C188.074 117.917 187.934 118.136 187.832 118.386C187.729 118.633 187.678 118.896 187.678 119.176C187.678 119.551 187.763 119.894 187.934 120.205C188.108 120.515 188.343 120.763 188.638 120.949C188.938 121.134 189.277 121.227 189.656 121.227Z" fill="#4F4F4F"/>
<path d="M224.628 48.1591C224.029 48.1553 223.452 48.0549 222.895 47.858C222.342 47.661 221.846 47.3409 221.406 46.8977C220.967 46.4545 220.618 45.8674 220.361 45.1364C220.107 44.4053 219.98 43.5076 219.98 42.4432C219.984 41.4659 220.096 40.5928 220.315 39.8239C220.539 39.0511 220.857 38.3958 221.27 37.858C221.687 37.3201 222.185 36.911 222.764 36.6307C223.344 36.3466 223.993 36.2045 224.713 36.2045C225.49 36.2045 226.175 36.3561 226.77 36.6591C227.365 36.9583 227.842 37.3655 228.202 37.8807C228.565 38.3958 228.785 38.9735 228.861 39.6136H226.435C226.34 39.2083 226.141 38.8902 225.838 38.6591C225.535 38.428 225.16 38.3125 224.713 38.3125C223.955 38.3125 223.38 38.642 222.986 39.3011C222.596 39.9602 222.397 40.8561 222.389 41.9886H222.469C222.643 41.6439 222.878 41.3504 223.173 41.108C223.473 40.8617 223.812 40.6742 224.19 40.5455C224.573 40.4129 224.976 40.3466 225.401 40.3466C226.09 40.3466 226.704 40.5095 227.241 40.8352C227.779 41.1572 228.204 41.6004 228.514 42.1648C228.825 42.7292 228.98 43.375 228.98 44.1023C228.98 44.8902 228.796 45.5909 228.429 46.2045C228.065 46.8182 227.556 47.2992 226.901 47.6477C226.249 47.9924 225.491 48.1629 224.628 48.1591ZM224.616 46.2273C224.995 46.2273 225.334 46.1364 225.634 45.9545C225.933 45.7727 226.168 45.5265 226.338 45.2159C226.509 44.9053 226.594 44.5568 226.594 44.1705C226.594 43.7841 226.509 43.4375 226.338 43.1307C226.171 42.8239 225.94 42.5795 225.645 42.3977C225.349 42.2159 225.012 42.125 224.634 42.125C224.349 42.125 224.086 42.178 223.844 42.2841C223.605 42.3902 223.395 42.5379 223.213 42.7273C223.035 42.9167 222.895 43.1364 222.793 43.3864C222.69 43.6326 222.639 43.8958 222.639 44.1761C222.639 44.5511 222.724 44.8939 222.895 45.2045C223.069 45.5152 223.304 45.7633 223.599 45.9489C223.899 46.1345 224.238 46.2273 224.616 46.2273Z" fill="#4F4F4F"/>
<path d="M221.318 61.3636V73H218.858V63.6989H218.79L216.125 65.3693V63.1875L219.006 61.3636H221.318ZM228.385 73.1591C227.536 73.1591 226.781 73.0133 226.118 72.7216C225.459 72.4261 224.938 72.0208 224.555 71.5057C224.177 70.9867 223.982 70.3883 223.97 69.7102H226.447C226.463 69.9943 226.555 70.2443 226.726 70.4602C226.9 70.6723 227.131 70.8371 227.419 70.9545C227.707 71.072 228.031 71.1307 228.391 71.1307C228.766 71.1307 229.097 71.0644 229.385 70.9318C229.673 70.7992 229.898 70.6155 230.061 70.3807C230.224 70.1458 230.305 69.875 230.305 69.5682C230.305 69.2576 230.218 68.983 230.044 68.7443C229.874 68.5019 229.627 68.3125 229.305 68.1761C228.987 68.0398 228.608 67.9716 228.169 67.9716H227.084V66.1648H228.169C228.54 66.1648 228.868 66.1004 229.152 65.9716C229.44 65.8428 229.663 65.6648 229.822 65.4375C229.982 65.2064 230.061 64.9375 230.061 64.6307C230.061 64.339 229.991 64.0833 229.851 63.8636C229.714 63.6402 229.521 63.4659 229.271 63.3409C229.025 63.2159 228.737 63.1534 228.408 63.1534C228.074 63.1534 227.769 63.214 227.493 63.3352C227.216 63.4527 226.995 63.6212 226.828 63.8409C226.661 64.0606 226.572 64.3182 226.561 64.6136H224.203C224.214 63.9432 224.406 63.3523 224.777 62.8409C225.148 62.3295 225.648 61.9299 226.277 61.642C226.91 61.3504 227.624 61.2045 228.419 61.2045C229.222 61.2045 229.925 61.3504 230.527 61.642C231.129 61.9337 231.597 62.3277 231.93 62.8239C232.268 63.3163 232.434 63.8693 232.43 64.483C232.434 65.1345 232.232 65.678 231.822 66.1136C231.417 66.5492 230.889 66.8258 230.237 66.9432V67.0341C231.093 67.1439 231.745 67.4413 232.192 67.9261C232.643 68.4072 232.866 69.0095 232.862 69.733C232.866 70.3958 232.675 70.9848 232.288 71.5C231.906 72.0152 231.377 72.4205 230.703 72.7159C230.029 73.0114 229.256 73.1591 228.385 73.1591Z" fill="#4F4F4F"/>
<path d="M214.896 98V96.2273L219.038 92.392C219.391 92.0511 219.686 91.7443 219.925 91.4716C220.167 91.1989 220.351 90.9318 220.476 90.6705C220.601 90.4053 220.663 90.1193 220.663 89.8125C220.663 89.4716 220.586 89.178 220.43 88.9318C220.275 88.6818 220.063 88.4905 219.794 88.358C219.525 88.2216 219.22 88.1534 218.879 88.1534C218.523 88.1534 218.213 88.2254 217.947 88.3693C217.682 88.5133 217.478 88.7197 217.334 88.9886C217.19 89.2576 217.118 89.5777 217.118 89.9489H214.783C214.783 89.1875 214.955 88.5265 215.3 87.9659C215.644 87.4053 216.127 86.9716 216.749 86.6648C217.37 86.358 218.086 86.2045 218.896 86.2045C219.73 86.2045 220.455 86.3523 221.072 86.6477C221.694 86.9394 222.177 87.3447 222.521 87.8636C222.866 88.3826 223.038 88.9773 223.038 89.6477C223.038 90.0871 222.951 90.5208 222.777 90.9489C222.607 91.3769 222.302 91.8523 221.862 92.375C221.423 92.8939 220.804 93.517 220.004 94.2443L218.305 95.9091V95.9886H223.192V98H214.896ZM229.537 98.2557C228.56 98.2519 227.719 98.0114 227.014 97.5341C226.313 97.0568 225.774 96.3655 225.395 95.4602C225.02 94.5549 224.834 93.4659 224.838 92.1932C224.838 90.9242 225.026 89.8428 225.401 88.9489C225.779 88.0549 226.319 87.375 227.02 86.9091C227.724 86.4394 228.563 86.2045 229.537 86.2045C230.51 86.2045 231.348 86.4394 232.048 86.9091C232.753 87.3788 233.295 88.0606 233.673 88.9545C234.052 89.8447 234.24 90.9242 234.236 92.1932C234.236 93.4697 234.046 94.5606 233.668 95.4659C233.293 96.3712 232.755 97.0625 232.054 97.5398C231.353 98.017 230.514 98.2557 229.537 98.2557ZM229.537 96.2159C230.204 96.2159 230.736 95.8807 231.134 95.2102C231.531 94.5398 231.728 93.5341 231.724 92.1932C231.724 91.3106 231.634 90.5758 231.452 89.9886C231.274 89.4015 231.02 88.9602 230.69 88.6648C230.365 88.3693 229.98 88.2216 229.537 88.2216C228.874 88.2216 228.344 88.553 227.946 89.2159C227.548 89.8788 227.348 90.8712 227.344 92.1932C227.344 93.0871 227.433 93.8333 227.611 94.4318C227.793 95.0265 228.048 95.4735 228.378 95.7727C228.707 96.0682 229.094 96.2159 229.537 96.2159Z" fill="#4F4F4F"/>
<path d="M215.646 123V121.227L219.788 117.392C220.141 117.051 220.436 116.744 220.675 116.472C220.917 116.199 221.101 115.932 221.226 115.67C221.351 115.405 221.413 115.119 221.413 114.812C221.413 114.472 221.336 114.178 221.18 113.932C221.025 113.682 220.813 113.491 220.544 113.358C220.275 113.222 219.97 113.153 219.629 113.153C219.273 113.153 218.963 113.225 218.697 113.369C218.432 113.513 218.228 113.72 218.084 113.989C217.94 114.258 217.868 114.578 217.868 114.949H215.533C215.533 114.187 215.705 113.527 216.05 112.966C216.394 112.405 216.877 111.972 217.499 111.665C218.12 111.358 218.836 111.205 219.646 111.205C220.48 111.205 221.205 111.352 221.822 111.648C222.444 111.939 222.927 112.345 223.271 112.864C223.616 113.383 223.788 113.977 223.788 114.648C223.788 115.087 223.701 115.521 223.527 115.949C223.357 116.377 223.052 116.852 222.612 117.375C222.173 117.894 221.554 118.517 220.754 119.244L219.055 120.909V120.989H223.942V123H215.646ZM226.185 123L231.009 113.455V113.375H225.389V111.364H233.554V113.403L228.724 123H226.185Z" fill="#4F4F4F"/>
<path d="M263.146 48L267.969 38.4545V38.375H262.35V36.3636H270.515V38.4034L265.685 48H263.146Z" fill="#4F4F4F"/>
<path d="M262.17 61.3636V73H259.71V63.6989H259.641L256.977 65.3693V63.1875L259.857 61.3636H262.17ZM264.759 70.9545V69.017L269.617 61.3636H271.288V64.0455H270.299L267.237 68.892V68.983H274.14V70.9545H264.759ZM270.344 73V70.3636L270.39 69.5057V61.3636H272.697V73H270.344Z" fill="#4F4F4F"/>
<path d="M257.49 98V96.2273L261.632 92.392C261.984 92.0511 262.28 91.7443 262.518 91.4716C262.761 91.1989 262.945 90.9318 263.07 90.6705C263.195 90.4053 263.257 90.1193 263.257 89.8125C263.257 89.4716 263.179 89.178 263.024 88.9318C262.869 88.6818 262.657 88.4905 262.388 88.358C262.119 88.2216 261.814 88.1534 261.473 88.1534C261.117 88.1534 260.806 88.2254 260.541 88.3693C260.276 88.5133 260.071 88.7197 259.928 88.9886C259.784 89.2576 259.712 89.5777 259.712 89.9489H257.376C257.376 89.1875 257.549 88.5265 257.893 87.9659C258.238 87.4053 258.721 86.9716 259.342 86.6648C259.964 86.358 260.679 86.2045 261.49 86.2045C262.323 86.2045 263.049 86.3523 263.666 86.6477C264.287 86.9394 264.77 87.3447 265.115 87.8636C265.46 88.3826 265.632 88.9773 265.632 89.6477C265.632 90.0871 265.545 90.5208 265.371 90.9489C265.2 91.3769 264.895 91.8523 264.456 92.375C264.017 92.8939 263.397 93.517 262.598 94.2443L260.899 95.9091V95.9886H265.786V98H257.49ZM272.631 86.3636V98H270.17V88.6989H270.102L267.438 90.3693V88.1875L270.318 86.3636H272.631Z" fill="#4F4F4F"/>
<path d="M256.115 123V121.227L260.257 117.392C260.609 117.051 260.905 116.744 261.143 116.472C261.386 116.199 261.57 115.932 261.695 115.67C261.82 115.405 261.882 115.119 261.882 114.812C261.882 114.472 261.804 114.178 261.649 113.932C261.494 113.682 261.282 113.491 261.013 113.358C260.744 113.222 260.439 113.153 260.098 113.153C259.742 113.153 259.431 113.225 259.166 113.369C258.901 113.513 258.696 113.72 258.553 113.989C258.409 114.258 258.337 114.578 258.337 114.949H256.001C256.001 114.187 256.174 113.527 256.518 112.966C256.863 112.405 257.346 111.972 257.967 111.665C258.589 111.358 259.304 111.205 260.115 111.205C260.948 111.205 261.674 111.352 262.291 111.648C262.912 111.939 263.395 112.345 263.74 112.864C264.085 113.383 264.257 113.977 264.257 114.648C264.257 115.087 264.17 115.521 263.996 115.949C263.825 116.377 263.52 116.852 263.081 117.375C262.642 117.894 262.022 118.517 261.223 119.244L259.524 120.909V120.989H264.411V123H256.115ZM270.534 123.159C269.659 123.159 268.881 123.017 268.199 122.733C267.521 122.445 266.989 122.053 266.602 121.557C266.216 121.061 266.023 120.498 266.023 119.869C266.023 119.384 266.133 118.939 266.352 118.534C266.576 118.125 266.879 117.786 267.261 117.517C267.644 117.244 268.072 117.07 268.545 116.994V116.915C267.924 116.79 267.42 116.489 267.034 116.011C266.648 115.53 266.455 114.972 266.455 114.335C266.455 113.733 266.631 113.197 266.983 112.727C267.335 112.254 267.818 111.883 268.432 111.614C269.049 111.341 269.75 111.205 270.534 111.205C271.318 111.205 272.017 111.341 272.631 111.614C273.248 111.886 273.733 112.259 274.085 112.733C274.438 113.203 274.616 113.737 274.619 114.335C274.616 114.975 274.419 115.534 274.028 116.011C273.638 116.489 273.138 116.79 272.528 116.915V116.994C272.994 117.07 273.417 117.244 273.795 117.517C274.178 117.786 274.481 118.125 274.705 118.534C274.932 118.939 275.047 119.384 275.051 119.869C275.047 120.498 274.852 121.061 274.466 121.557C274.08 122.053 273.545 122.445 272.864 122.733C272.186 123.017 271.409 123.159 270.534 123.159ZM270.534 121.352C270.924 121.352 271.265 121.282 271.557 121.142C271.848 120.998 272.076 120.801 272.239 120.551C272.405 120.297 272.489 120.006 272.489 119.676C272.489 119.339 272.403 119.042 272.233 118.784C272.063 118.523 271.831 118.318 271.54 118.17C271.248 118.019 270.913 117.943 270.534 117.943C270.159 117.943 269.824 118.019 269.528 118.17C269.233 118.318 269 118.523 268.83 118.784C268.663 119.042 268.58 119.339 268.58 119.676C268.58 120.006 268.661 120.297 268.824 120.551C268.987 120.801 269.216 120.998 269.511 121.142C269.807 121.282 270.148 121.352 270.534 121.352ZM270.534 116.153C270.86 116.153 271.15 116.087 271.403 115.955C271.657 115.822 271.856 115.638 272 115.403C272.144 115.169 272.216 114.898 272.216 114.591C272.216 114.288 272.144 114.023 272 113.795C271.856 113.564 271.659 113.384 271.409 113.256C271.159 113.123 270.867 113.057 270.534 113.057C270.205 113.057 269.913 113.123 269.659 113.256C269.405 113.384 269.206 113.564 269.062 113.795C268.922 114.023 268.852 114.288 268.852 114.591C268.852 114.898 268.924 115.169 269.068 115.403C269.212 115.638 269.411 115.822 269.665 115.955C269.919 116.087 270.208 116.153 270.534 116.153Z" fill="#4F4F4F"/>
<path d="M48.5682 5.39205V3.36364H58.125V5.39205H54.5625V15H52.1307V5.39205H48.5682ZM64.0625 11.2841V6.27273H66.483V15H64.1591V13.4148H64.0682C63.8712 13.9261 63.5436 14.3371 63.0852 14.6477C62.6307 14.9583 62.0758 15.1136 61.4205 15.1136C60.8371 15.1136 60.3239 14.9811 59.8807 14.7159C59.4375 14.4508 59.0909 14.0739 58.8409 13.5852C58.5947 13.0966 58.4697 12.5114 58.4659 11.8295V6.27273H60.8864V11.3977C60.8902 11.9129 61.0284 12.3201 61.3011 12.6193C61.5739 12.9186 61.9394 13.0682 62.3977 13.0682C62.6894 13.0682 62.9621 13.0019 63.2159 12.8693C63.4697 12.733 63.6742 12.5322 63.8295 12.267C63.9886 12.0019 64.0663 11.6742 64.0625 11.2841Z" fill="#4F4F4F"/>
<path d="M89.6307 15L86.3011 3.36364H88.9886L90.9148 11.4489H91.0114L93.1364 3.36364H95.4375L97.5568 11.4659H97.6591L99.5852 3.36364H102.273L98.9432 15H96.5455L94.3295 7.39205H94.2386L92.0284 15H89.6307ZM106.584 15.1705C105.686 15.1705 104.913 14.9886 104.266 14.625C103.622 14.2576 103.125 13.7386 102.777 13.0682C102.429 12.3939 102.254 11.5966 102.254 10.6761C102.254 9.77841 102.429 8.99053 102.777 8.3125C103.125 7.63447 103.616 7.10606 104.249 6.72727C104.885 6.34848 105.631 6.15909 106.487 6.15909C107.063 6.15909 107.599 6.25189 108.095 6.4375C108.595 6.61932 109.031 6.89394 109.402 7.26136C109.777 7.62879 110.069 8.09091 110.277 8.64773C110.485 9.20076 110.589 9.84848 110.589 10.5909V11.2557H103.22V9.75568H108.311C108.311 9.4072 108.235 9.09848 108.084 8.82955C107.932 8.56061 107.722 8.35038 107.453 8.19886C107.188 8.04356 106.879 7.96591 106.527 7.96591C106.16 7.96591 105.834 8.05114 105.55 8.22159C105.269 8.38826 105.05 8.61364 104.891 8.89773C104.732 9.17803 104.65 9.49053 104.646 9.83523V11.2614C104.646 11.6932 104.726 12.0663 104.885 12.3807C105.048 12.6951 105.277 12.9375 105.572 13.108C105.868 13.2784 106.218 13.3636 106.624 13.3636C106.893 13.3636 107.139 13.3258 107.362 13.25C107.586 13.1742 107.777 13.0606 107.936 12.9091C108.095 12.7576 108.216 12.572 108.3 12.3523L110.538 12.5C110.425 13.0379 110.192 13.5076 109.839 13.9091C109.491 14.3068 109.04 14.6174 108.487 14.8409C107.938 15.0606 107.304 15.1705 106.584 15.1705Z" fill="#4F4F4F"/>
<path d="M131.568 5.39205V3.36364H141.125V5.39205H137.562V15H135.131V5.39205H131.568ZM145.074 9.95455V15H142.653V3.36364H145.006V7.8125H145.108C145.305 7.29735 145.623 6.89394 146.062 6.60227C146.502 6.30682 147.053 6.15909 147.716 6.15909C148.322 6.15909 148.85 6.29167 149.301 6.55682C149.756 6.81818 150.108 7.19508 150.358 7.6875C150.612 8.17614 150.737 8.76136 150.733 9.44318V15H148.312V9.875C148.316 9.33712 148.18 8.91856 147.903 8.61932C147.631 8.32008 147.248 8.17045 146.756 8.17045C146.426 8.17045 146.134 8.24053 145.881 8.38068C145.631 8.52083 145.434 8.72538 145.29 8.99432C145.15 9.25947 145.078 9.57955 145.074 9.95455Z" fill="#4F4F4F"/>
<path d="M175.011 15V3.36364H182.716V5.39205H177.472V8.16477H182.205V10.1932H177.472V15H175.011ZM184.185 15V6.27273H186.531V7.79545H186.622C186.781 7.25379 187.048 6.8447 187.423 6.56818C187.798 6.28788 188.23 6.14773 188.719 6.14773C188.84 6.14773 188.971 6.1553 189.111 6.17045C189.251 6.18561 189.374 6.20644 189.48 6.23295V8.38068C189.366 8.34659 189.209 8.31629 189.009 8.28977C188.808 8.26326 188.624 8.25 188.457 8.25C188.101 8.25 187.783 8.32765 187.503 8.48295C187.226 8.63447 187.007 8.84659 186.844 9.11932C186.685 9.39205 186.605 9.70644 186.605 10.0625V15H184.185Z" fill="#4F4F4F"/>
<path d="M219.324 6.71023C219.278 6.25189 219.083 5.89583 218.739 5.64205C218.394 5.38826 217.926 5.26136 217.335 5.26136C216.934 5.26136 216.595 5.31818 216.318 5.43182C216.042 5.54167 215.83 5.69508 215.682 5.89205C215.538 6.08902 215.466 6.3125 215.466 6.5625C215.458 6.77083 215.502 6.95265 215.597 7.10795C215.695 7.26326 215.83 7.39773 216 7.51136C216.17 7.62121 216.367 7.7178 216.591 7.80114C216.814 7.88068 217.053 7.94886 217.307 8.00568L218.352 8.25568C218.86 8.36932 219.326 8.52083 219.75 8.71023C220.174 8.89962 220.542 9.13258 220.852 9.40909C221.163 9.68561 221.403 10.0114 221.574 10.3864C221.748 10.7614 221.837 11.1913 221.841 11.6761C221.837 12.3883 221.655 13.0057 221.295 13.5284C220.939 14.0473 220.424 14.4508 219.75 14.7386C219.08 15.0227 218.271 15.1648 217.324 15.1648C216.384 15.1648 215.566 15.0208 214.869 14.733C214.176 14.4451 213.634 14.0189 213.244 13.4545C212.858 12.8864 212.655 12.1837 212.636 11.3466H215.017C215.044 11.7367 215.155 12.0625 215.352 12.3239C215.553 12.5814 215.82 12.7765 216.153 12.9091C216.491 13.0379 216.871 13.1023 217.295 13.1023C217.712 13.1023 218.074 13.0417 218.381 12.9205C218.691 12.7992 218.932 12.6307 219.102 12.4148C219.273 12.1989 219.358 11.9508 219.358 11.6705C219.358 11.4091 219.28 11.1894 219.125 11.0114C218.973 10.8333 218.75 10.6818 218.455 10.5568C218.163 10.4318 217.805 10.3182 217.381 10.2159L216.114 9.89773C215.133 9.65909 214.358 9.28598 213.79 8.77841C213.222 8.27083 212.939 7.58712 212.943 6.72727C212.939 6.02273 213.127 5.4072 213.506 4.88068C213.888 4.35417 214.413 3.94318 215.08 3.64773C215.746 3.35227 216.504 3.20455 217.352 3.20455C218.216 3.20455 218.97 3.35227 219.614 3.64773C220.261 3.94318 220.765 4.35417 221.125 4.88068C221.485 5.4072 221.67 6.01705 221.682 6.71023H219.324ZM225.939 15.1648C225.382 15.1648 224.886 15.0682 224.45 14.875C224.015 14.678 223.67 14.3883 223.416 14.0057C223.166 13.6193 223.041 13.1383 223.041 12.5625C223.041 12.0777 223.13 11.6705 223.308 11.3409C223.486 11.0114 223.729 10.7462 224.036 10.5455C224.342 10.3447 224.691 10.1932 225.081 10.0909C225.475 9.98864 225.888 9.91667 226.32 9.875C226.827 9.82197 227.236 9.77273 227.547 9.72727C227.857 9.67803 228.083 9.60606 228.223 9.51136C228.363 9.41667 228.433 9.27652 228.433 9.09091V9.05682C228.433 8.69697 228.32 8.41856 228.092 8.22159C227.869 8.02462 227.551 7.92614 227.138 7.92614C226.702 7.92614 226.356 8.02273 226.098 8.21591C225.84 8.4053 225.67 8.64394 225.587 8.93182L223.348 8.75C223.462 8.2197 223.685 7.76136 224.018 7.375C224.352 6.98485 224.782 6.68561 225.308 6.47727C225.839 6.26515 226.452 6.15909 227.149 6.15909C227.634 6.15909 228.098 6.21591 228.541 6.32955C228.988 6.44318 229.384 6.61932 229.729 6.85795C230.077 7.09659 230.352 7.40341 230.553 7.77841C230.753 8.14962 230.854 8.5947 230.854 9.11364V15H228.558V13.7898H228.49C228.35 14.0625 228.162 14.303 227.928 14.5114C227.693 14.7159 227.411 14.8769 227.081 14.9943C226.751 15.108 226.371 15.1648 225.939 15.1648ZM226.632 13.4943C226.988 13.4943 227.303 13.4242 227.575 13.2841C227.848 13.1402 228.062 12.947 228.217 12.7045C228.373 12.4621 228.45 12.1875 228.45 11.8807V10.9545C228.375 11.0038 228.27 11.0492 228.138 11.0909C228.009 11.1288 227.863 11.1648 227.7 11.1989C227.537 11.2292 227.375 11.2576 227.212 11.2841C227.049 11.3068 226.901 11.3277 226.768 11.3466C226.484 11.3883 226.236 11.4545 226.024 11.5455C225.812 11.6364 225.647 11.7595 225.53 11.9148C225.412 12.0663 225.354 12.2557 225.354 12.483C225.354 12.8125 225.473 13.0644 225.712 13.2386C225.954 13.4091 226.261 13.4943 226.632 13.4943Z" fill="#4F4F4F"/>
<path d="M261.324 6.71023C261.278 6.25189 261.083 5.89583 260.739 5.64205C260.394 5.38826 259.926 5.26136 259.335 5.26136C258.934 5.26136 258.595 5.31818 258.318 5.43182C258.042 5.54167 257.83 5.69508 257.682 5.89205C257.538 6.08902 257.466 6.3125 257.466 6.5625C257.458 6.77083 257.502 6.95265 257.597 7.10795C257.695 7.26326 257.83 7.39773 258 7.51136C258.17 7.62121 258.367 7.7178 258.591 7.80114C258.814 7.88068 259.053 7.94886 259.307 8.00568L260.352 8.25568C260.86 8.36932 261.326 8.52083 261.75 8.71023C262.174 8.89962 262.542 9.13258 262.852 9.40909C263.163 9.68561 263.403 10.0114 263.574 10.3864C263.748 10.7614 263.837 11.1913 263.841 11.6761C263.837 12.3883 263.655 13.0057 263.295 13.5284C262.939 14.0473 262.424 14.4508 261.75 14.7386C261.08 15.0227 260.271 15.1648 259.324 15.1648C258.384 15.1648 257.566 15.0208 256.869 14.733C256.176 14.4451 255.634 14.0189 255.244 13.4545C254.858 12.8864 254.655 12.1837 254.636 11.3466H257.017C257.044 11.7367 257.155 12.0625 257.352 12.3239C257.553 12.5814 257.82 12.7765 258.153 12.9091C258.491 13.0379 258.871 13.1023 259.295 13.1023C259.712 13.1023 260.074 13.0417 260.381 12.9205C260.691 12.7992 260.932 12.6307 261.102 12.4148C261.273 12.1989 261.358 11.9508 261.358 11.6705C261.358 11.4091 261.28 11.1894 261.125 11.0114C260.973 10.8333 260.75 10.6818 260.455 10.5568C260.163 10.4318 259.805 10.3182 259.381 10.2159L258.114 9.89773C257.133 9.65909 256.358 9.28598 255.79 8.77841C255.222 8.27083 254.939 7.58712 254.943 6.72727C254.939 6.02273 255.127 5.4072 255.506 4.88068C255.888 4.35417 256.413 3.94318 257.08 3.64773C257.746 3.35227 258.504 3.20455 259.352 3.20455C260.216 3.20455 260.97 3.35227 261.614 3.64773C262.261 3.94318 262.765 4.35417 263.125 4.88068C263.485 5.4072 263.67 6.01705 263.682 6.71023H261.324ZM271.047 11.2841V6.27273H273.467V15H271.143V13.4148H271.053C270.856 13.9261 270.528 14.3371 270.07 14.6477C269.615 14.9583 269.06 15.1136 268.405 15.1136C267.821 15.1136 267.308 14.9811 266.865 14.7159C266.422 14.4508 266.075 14.0739 265.825 13.5852C265.579 13.0966 265.454 12.5114 265.45 11.8295V6.27273H267.871V11.3977C267.875 11.9129 268.013 12.3201 268.286 12.6193C268.558 12.9186 268.924 13.0682 269.382 13.0682C269.674 13.0682 269.946 13.0019 270.2 12.8693C270.454 12.733 270.659 12.5322 270.814 12.267C270.973 12.0019 271.051 11.6742 271.047 11.2841Z" fill="#4F4F4F"/>
</svg>
